<?xml version="1.0" standalone="no"?>
<!DOCTYPE svg PUBLIC "-//W3C//DTD SVG 20010904//EN"
 "http://www.w3.org/TR/2001/REC-SVG-20010904/DTD/svg10.dtd">
<svg version="1.0" xmlns="http://www.w3.org/2000/svg"
 width="1200.000000pt" height="1200.000000pt" viewBox="0 0 1200.000000 1200.000000"
 preserveAspectRatio="xMidYMid meet">
<metadata>
Created by potrace 1.11, written by Peter Selinger 2001-2013
</metadata>
<g transform="translate(0.000000,1200.000000) scale(0.100000,-0.100000)"
fill="#FFFFFF" stroke="none">
<path d="M6199 10796 c-2 -2 -51 -7 -109 -11 -58 -4 -107 -8 -110 -10 -3 -1
-32 -5 -65 -9 -33 -3 -96 -12 -140 -20 -44 -9 -95 -18 -113 -21 -121 -20 -292
-64 -477 -121 -60 -18 -162 -47 -225 -63 -221 -56 -447 -135 -660 -229 -105
-46 -324 -155 -344 -171 -6 -4 -36 -22 -66 -38 -166 -91 -390 -245 -748 -514
-492 -371 -641 -453 -991 -545 -101 -26 -103 -27 -236 -49 -49 -9 -101 -18
-115 -20 -14 -3 -68 -8 -120 -11 -52 -3 -115 -8 -140 -9 -142 -11 -724 -4
-900 10 -74 6 -77 5 -88 -19 l-11 -25 -118 5 c-65 3 -124 7 -131 9 -15 6 -42
-4 -42 -16 0 -5 -11 -32 -24 -61 -14 -30 -34 -78 -46 -108 -12 -30 -27 -68
-35 -85 -11 -26 -41 -98 -76 -182 -19 -46 -28 -69 -48 -117 -12 -27 -19 -51
-17 -53 11 -11 247 -17 666 -18 413 0 577 4 770 20 144 12 253 23 310 31 19 2
60 6 90 9 60 5 134 13 190 20 19 3 55 7 80 10 25 4 56 8 70 10 14 2 45 7 70
10 269 36 618 139 790 233 45 25 157 101 182 124 7 7 54 49 103 93 50 44 102
91 116 105 45 43 232 215 289 266 351 310 698 510 1125 644 55 17 106 33 114
36 10 3 10 -1 -3 -18 -129 -181 -233 -393 -260 -528 -2 -14 -11 -56 -19 -95
-8 -38 -18 -95 -21 -125 -7 -57 -8 -246 -2 -290 2 -14 6 -50 10 -80 28 -214
129 -456 274 -659 50 -71 195 -221 257 -266 22 -17 42 -33 45 -36 3 -4 37 -27
75 -51 222 -143 461 -221 718 -234 62 -3 123 -7 137 -9 110 -19 276 -23 400
-12 277 26 549 134 780 310 67 52 216 198 255 252 17 22 33 42 36 45 18 14
114 172 148 243 37 79 85 203 96 250 53 225 67 384 50 567 -15 150 -74 369
-132 483 -13 27 -23 51 -20 53 2 2 88 -29 191 -70 558 -223 1143 -525 1643
-849 l123 -79 -53 -42 c-50 -40 -249 -187 -294 -217 -11 -8 -61 -41 -110 -75
-86 -59 -327 -214 -394 -252 -245 -141 -332 -189 -494 -271 -259 -132 -383
-188 -605 -276 -253 -100 -678 -232 -839 -262 -14 -2 -57 -11 -96 -19 -68 -14
-93 -19 -165 -30 -19 -2 -46 -7 -60 -9 -156 -24 -794 -25 -1003 0 -18 2 -66 7
-107 10 -41 4 -83 9 -92 10 -9 2 -43 6 -75 9 -237 24 -667 106 -968 186 -82
22 -157 42 -165 44 -401 105 -993 332 -1420 546 -141 70 -142 70 -250 55 -59
-8 -112 -14 -185 -21 -33 -3 -76 -7 -95 -9 -19 -3 -59 -8 -89 -11 -30 -3 -64
-8 -75 -10 -11 -2 -50 -6 -86 -10 -36 -3 -67 -7 -70 -9 -3 -2 -34 -6 -70 -10
-36 -4 -78 -9 -95 -11 -16 -2 -48 -6 -70 -9 -21 -3 -41 -7 -43 -9 -9 -10 245
-191 413 -294 55 -35 107 -67 115 -72 52 -32 307 -169 425 -228 276 -137 544
-246 895 -363 212 -70 230 -78 188 -80 -27 -1 -52 -3 -58 -4 -5 -1 -19 -3 -30
-4 -13 -1 -27 -18 -44 -53 -13 -29 -52 -111 -86 -183 -83 -174 -154 -323 -200
-420 -21 -44 -68 -143 -105 -220 -37 -77 -82 -171 -100 -210 -47 -100 -124
-263 -283 -595 -30 -63 -72 -151 -92 -195 -63 -133 -134 -283 -195 -410 -31
-66 -73 -154 -92 -195 -20 -41 -66 -138 -103 -215 -36 -77 -88 -186 -115 -242
l-48 -103 -46 -1 c-25 0 -53 -2 -61 -4 -8 -1 -35 -6 -60 -9 -25 -4 -53 -9 -62
-12 -9 -3 -25 -6 -35 -8 -44 -9 -134 -49 -172 -77 -69 -49 -81 -79 -75 -179 3
-47 6 -96 5 -110 -4 -150 -56 -290 -167 -447 -24 -34 -44 -64 -44 -67 0 -3 35
-21 78 -41 42 -20 85 -40 94 -45 29 -16 36 -12 54 35 9 25 18 45 20 45 2 0 38
-16 79 -35 l76 -36 -14 -27 c-8 -15 -24 -49 -37 -77 -51 -115 -151 -245 -229
-298 -14 -9 -23 -18 -20 -20 2 -2 81 -44 175 -93 l172 -88 47 38 47 39 55 -27
c46 -22 58 -25 72 -14 177 137 368 334 468 483 46 69 106 186 118 230 5 17 9
32 10 35 7 27 16 74 21 115 9 78 12 509 4 554 -7 42 2 68 111 300 17 36 50
108 74 160 23 53 68 149 99 214 31 65 56 120 56 122 0 3 42 95 126 274 24 51
44 95 44 96 0 2 23 52 51 112 28 59 60 128 71 153 11 25 35 77 53 115 95 204
146 315 180 390 30 66 302 657 350 760 53 114 95 206 95 210 0 3 -159 205
-191 243 -22 26 -15 27 61 7 102 -26 177 -44 201 -49 13 -2 65 -13 114 -24 50
-11 106 -23 125 -26 19 -3 46 -8 60 -11 59 -12 77 -15 115 -20 23 -3 50 -7 60
-9 11 -2 45 -7 75 -11 30 -4 62 -9 70 -10 36 -7 174 -21 290 -30 47 -4 96 -8
110 -10 36 -6 368 -18 485 -18 103 0 433 12 495 18 19 1 73 6 120 10 47 3 96
8 110 10 14 2 50 6 80 10 30 3 71 8 90 10 19 3 64 7 100 10 36 4 76 8 90 10
14 2 50 6 80 10 30 3 66 7 80 9 14 3 86 14 160 26 337 52 762 154 1119 267 64
20 118 38 121 38 3 1 12 4 20 7 8 3 94 34 190 69 96 34 218 80 270 101 52 22
100 40 105 42 57 17 395 170 630 286 528 261 1060 581 1462 882 76 56 147 104
158 104 23 2 150 12 245 19 36 3 83 8 105 10 22 3 87 7 144 11 58 3 112 7 121
9 9 2 66 6 128 10 127 8 139 9 147 17 4 4 -20 67 -55 143 -5 11 -20 46 -34 78
-25 56 -25 57 -68 58 -58 1 -136 5 -238 13 -47 4 -116 9 -155 12 -38 2 -86 7
-105 9 -19 3 -67 7 -105 10 -39 3 -79 7 -90 9 -11 2 -47 7 -80 10 -59 7 -111
14 -144 21 -9 1 -56 10 -105 20 -49 9 -110 24 -137 34 -41 16 -175 87 -233
124 -632 399 -864 540 -1171 709 -256 141 -679 337 -965 448 -121 47 -437 156
-476 165 -10 2 -50 13 -89 25 -181 54 -546 136 -685 154 -25 3 -54 8 -65 10
-11 2 -49 7 -85 11 -36 3 -78 9 -95 11 -34 6 -611 15 -616 10z"/>
<path d="M8320 6982 c-65 -32 -169 -80 -300 -138 -52 -23 -96 -46 -97 -51 -2
-5 19 -47 45 -93 27 -47 60 -105 74 -130 14 -25 65 -115 115 -200 49 -85 92
-162 96 -170 4 -8 17 -31 28 -50 12 -19 68 -116 124 -215 57 -99 113 -198 126
-220 31 -54 65 -115 82 -145 8 -14 38 -65 67 -115 29 -49 56 -99 61 -110 5
-11 146 -258 313 -549 l304 -530 -27 -40 c-79 -114 -133 -254 -137 -351 -4
-94 18 -133 97 -175 187 -99 293 -236 391 -502 l13 -37 87 44 c89 45 94 45
107 0 l6 -23 90 44 c49 24 92 44 97 44 24 0 86 -212 83 -282 -1 -21 2 -38 6
-38 5 0 49 18 99 40 50 22 93 40 97 40 3 0 3 -15 1 -34 l-4 -33 111 50 c60 27
143 63 184 81 l73 31 -6 90 c-3 49 -8 99 -10 110 -2 11 -7 47 -11 80 -30 257
-138 539 -259 674 -55 62 -362 294 -501 380 -79 49 -19 -43 -459 706 -109 187
-227 388 -262 446 -35 59 -72 122 -82 140 -11 19 -51 87 -91 153 -39 65 -71
120 -71 121 0 2 -115 197 -372 635 -44 74 -108 183 -141 242 -37 63 -68 107
-77 107 -8 0 -40 -13 -70 -27z"/>
<path d="M7205 6249 c-25 -25 -381 -209 -404 -209 -4 0 -12 -5 -18 -11 -8 -8
-3 -35 19 -98 16 -47 31 -93 33 -101 2 -8 63 -188 135 -400 72 -212 142 -416
155 -455 13 -38 101 -297 195 -575 94 -278 220 -649 280 -825 204 -604 239
-705 244 -713 3 -5 -7 -22 -22 -38 -146 -160 -216 -281 -219 -378 -2 -76 10
-98 89 -166 76 -66 86 -78 137 -155 62 -94 101 -209 127 -380 3 -22 7 -41 8
-42 1 -1 42 9 91 22 95 26 116 30 114 18 -1 -5 -1 -11 0 -15 1 -6 162 35 180
47 18 11 51 -148 51 -245 0 -30 -4 -72 -9 -93 -8 -33 -7 -37 7 -33 10 3 49 12
87 21 39 8 78 18 87 21 9 3 18 -1 20 -9 2 -10 45 -3 192 33 162 39 190 48 192
65 2 11 5 34 8 50 19 107 26 391 13 516 -25 242 -85 380 -242 556 -100 113
-159 175 -251 267 -105 105 -113 115 -137 186 -14 41 -80 230 -147 420 -67
190 -137 388 -155 440 -96 274 -157 448 -167 475 -5 17 -14 39 -19 50 -5 11
-15 40 -23 65 -8 25 -39 115 -69 200 -30 85 -112 317 -181 515 -70 198 -142
403 -161 455 -18 52 -61 174 -95 270 -76 218 -101 280 -109 279 -3 0 -19 -14
-36 -30z m888 -4219 c14 -36 28 -78 31 -95 6 -28 5 -27 -8 5 -41 103 -66 174
-58 165 5 -6 21 -39 35 -75z"/>
<path d="M4841 6217 c-53 -12 -86 -15 -90 -9 -5 8 -346 -60 -359 -72 -6 -6
-216 -990 -238 -1111 -3 -16 -9 -46 -14 -65 -5 -19 -11 -52 -14 -74 -4 -21 -8
-41 -11 -45 -2 -4 -6 -21 -9 -37 -9 -47 -12 -64 -80 -389 -36 -170 -67 -321
-70 -335 -2 -14 -9 -45 -15 -70 -5 -25 -12 -56 -15 -70 -2 -14 -21 -101 -41
-195 -20 -93 -47 -224 -61 -290 -14 -66 -34 -160 -44 -210 -54 -253 -80 -374
-80 -378 0 -3 -15 -9 -32 -12 -67 -15 -214 -80 -283 -126 -121 -81 -159 -166
-118 -260 32 -72 46 -148 47 -244 0 -124 -20 -223 -66 -324 -25 -55 -28 -93
-8 -96 51 -10 173 -37 186 -42 13 -5 19 13 15 40 -3 17 33 18 103 3 l73 -17
-14 -67 c-29 -142 -73 -244 -145 -334 l-29 -37 38 -10 c21 -5 74 -19 118 -31
44 -11 87 -22 95 -24 8 -2 41 -11 73 -19 l59 -16 27 31 27 30 72 -19 c54 -15
75 -17 85 -9 20 16 157 203 157 213 0 5 8 18 18 29 9 11 23 31 31 45 141 239
212 453 205 617 -4 88 -62 379 -105 522 -17 58 -33 117 -36 131 -3 14 28 190
67 390 40 200 74 375 77 389 2 14 22 113 43 220 22 107 41 206 44 220 2 14 9
48 15 75 6 28 13 61 15 75 6 37 71 361 111 555 3 17 8 44 11 60 2 17 11 62 19
100 8 39 16 81 19 95 2 14 11 59 20 100 8 41 17 86 20 100 7 38 70 359 116
590 22 113 42 216 45 230 3 14 11 57 20 95 18 86 18 102 3 101 -7 0 -51 -8
-97 -19z m-1324 -4029 c-3 -8 -6 -5 -6 6 -1 11 2 17 5 13 3 -3 4 -12 1 -19z
m-4 -53 c-2 -19 -9 -47 -14 -62 -8 -24 -8 -22 -4 12 3 22 5 50 5 63 0 12 4 22
9 22 5 0 7 -16 4 -35z"/>
<path d="M5603 6130 c-133 -54 -247 -101 -254 -105 -10 -7 -7 -66 7 -138 2
-11 6 -45 10 -76 3 -31 8 -64 10 -75 2 -10 6 -44 9 -75 4 -31 8 -63 10 -71 2
-8 7 -42 10 -75 3 -33 8 -71 10 -85 7 -39 13 -80 20 -139 4 -30 8 -61 10 -70
1 -9 6 -43 9 -76 4 -33 9 -67 11 -75 2 -8 6 -40 10 -71 3 -31 7 -65 9 -75 2
-11 7 -48 11 -84 3 -36 8 -72 10 -80 2 -8 7 -39 10 -69 4 -30 8 -61 10 -70 1
-9 6 -43 9 -76 4 -33 11 -87 16 -120 5 -33 12 -82 15 -110 5 -44 8 -68 20
-150 2 -11 7 -42 10 -70 4 -27 8 -63 11 -80 2 -16 6 -50 9 -75 3 -25 7 -56 10
-70 2 -14 7 -50 10 -80 4 -30 9 -63 11 -74 2 -10 6 -42 8 -70 3 -28 7 -60 10
-71 2 -11 7 -45 10 -76 4 -31 8 -65 10 -75 2 -11 7 -44 10 -75 4 -31 8 -65 10
-75 2 -11 7 -44 10 -75 4 -31 9 -67 11 -80 3 -13 7 -46 10 -74 2 -27 7 -61 9
-75 4 -22 7 -44 22 -157 2 -18 6 -48 9 -67 4 -32 1 -37 -58 -81 -178 -132
-276 -270 -263 -368 6 -45 7 -46 62 -114 118 -145 160 -283 157 -516 l-2 -107
27 4 c15 3 63 8 107 11 44 4 87 8 95 10 8 3 49 7 91 10 91 7 87 13 87 -136 0
-92 -9 -143 -44 -250 -5 -13 2 -15 43 -12 26 1 105 6 175 9 69 3 132 7 140 8
60 12 93 16 157 20 47 2 77 9 82 17 12 19 65 190 84 274 35 148 46 235 50 370
6 224 -17 309 -144 525 -80 135 -217 341 -250 377 -12 13 -21 26 -20 30 1 10
-11 109 -17 138 -2 11 -7 38 -9 59 -3 22 -15 101 -25 175 -11 75 -22 154 -25
176 -5 34 -16 109 -20 125 -1 3 -5 32 -9 65 -4 32 -9 66 -11 75 -1 8 -6 38 -9
65 -4 28 -9 61 -11 75 -2 14 -16 106 -30 205 -14 99 -28 191 -30 205 -2 14 -9
61 -15 105 -14 101 -19 134 -25 165 -2 14 -7 48 -10 75 -3 28 -10 75 -15 105
-5 30 -12 75 -15 100 -3 25 -8 56 -10 70 -3 14 -14 90 -25 170 -11 80 -22 156
-25 170 -2 14 -6 45 -10 70 -3 25 -8 56 -10 70 -2 14 -7 45 -10 70 -3 25 -8
56 -10 70 -2 14 -7 45 -10 70 -3 25 -10 70 -15 100 -5 30 -12 78 -15 105 -3
28 -10 73 -15 100 -5 28 -12 73 -15 100 -8 59 -15 111 -20 145 -3 14 -7 43
-10 65 -14 98 -17 115 -23 115 -4 -1 -116 -45 -249 -100z m250 -4195 c18 -71
32 -209 17 -160 -6 17 -13 50 -16 75 -3 25 -8 48 -10 51 -5 10 -16 104 -11 99
3 -3 12 -32 20 -65z"/>
</g>
</svg>
