<svg xmlns="http://www.w3.org/2000/svg" viewBox="0 0 32.22 23.1">
    <defs>
        <style>
            .bdfa666c-fc4a-4c90-bdc6-b8ab98c1fff3{fill:#030000;}.fc1fecea-4fe2-480a-9070-8ad3ad853455{fill:#fff;}.aca60db2-a3ee-4031-aab4-3ae59dc5a57f{fill:#120e16;}
        </style>
    </defs>
    <title>Asset 5</title>
    <g id="e7431e6b-de39-4eda-9b06-3e4fc9b57923">
        <g id="a0b65b40-ccb6-4c42-a8a6-2eeb00d6b50b">
            <path class="bdfa666c-fc4a-4c90-bdc6-b8ab98c1fff3"
                  d="M1.42,9.4s9.93,1.51,11.36.8,6-3.13,10.23-2.78c5,.41,5.76,1.69,6.72,3.28.37.63,1.22.86,1.54,1.12.71.56-.23,1.07-.23,1.07a4,4,0,0,1-2.32-1.52c-.85-1.15-1.51-1.24-3.4-1.9-4-1.4-11.43,2-11.35,2.35s4.68,2.65,8.6,2.65S27.63,13,29,12.73s2,.53,1.62.72-2.27.69-3.48,1.3a12.58,12.58,0,0,1-7.67.74C15.6,14.82,15,14,12.54,13c-1.11-.47-11.43.37-11.43.37S-.79,11.14,1.42,9.4Z"/>
            <path class="bdfa666c-fc4a-4c90-bdc6-b8ab98c1fff3"
                  d="M18.16,9.29s-.69,2.85,1.51,4.18a4.53,4.53,0,0,0,5.66-.53c.93-1,1.46-3.3.3-4.46S19.14,7.92,18.16,9.29Z"/>
            <path class="bdfa666c-fc4a-4c90-bdc6-b8ab98c1fff3"
                  d="M23,15.72a9.14,9.14,0,0,0-4.2,1.21c-2.27,1.44-5.28,3.75-7.55,4.83-4.39,2.09-5.72-1.34-4.7-2.34,1.63-1.6,3.3,0,2.74,1.27-.23.53-1,.17-.48.36s1.63-.39,5.81-3.45c5.07-3.72,5.67-2.91,5.67-2.91Z"/>
            <path class="bdfa666c-fc4a-4c90-bdc6-b8ab98c1fff3"
                  d="M21.86,15.64s-.31,6.45,0,7,1.65.54,1.84,0-.32-3.73,0-3.94,1.19-.75,1-1-1.44-.6-1.44-1.08a14.8,14.8,0,0,1,.19-1.48Z"/>
            <path class="bdfa666c-fc4a-4c90-bdc6-b8ab98c1fff3"
                  d="M.35,5S8.66,6.85,12.52,5s8.29-3.27,12.2-2.38S30,5.72,31.36,5s.81-1.25.18-1.84a18.35,18.35,0,0,0-11.49-3c-5.66.59-9.13,3-10.46,3.28S0,2.58,0,2.58Z"/>
            <path class="fc1fecea-4fe2-480a-9070-8ad3ad853455"
                  d="M14.7,14.25a22,22,0,0,0,7.73,1.32,23.67,23.67,0,0,0,6.71-1.51L26.85,15c-.85.33-1.62,1.23-5.5,1.22C18.89,16.18,13.56,14.89,14.7,14.25Z"/>
            <path class="aca60db2-a3ee-4031-aab4-3ae59dc5a57f"
                  d="M1.47,13.43S7,12.94,9.07,13s3.47,0,3.47,0l.24-.17s-2.32-.28-5-.3-5.6.67-6.35.44S.52,11.17.65,10.61A3.6,3.6,0,0,1,1.42,9.4,2.53,2.53,0,0,0,.17,11.88C.46,13.49,1.47,13.43,1.47,13.43Z"/>
            <path class="aca60db2-a3ee-4031-aab4-3ae59dc5a57f"
                  d="M.35,5S6.79,6.9,11,5.65s7.71-3.79,12.46-3.07,6.44,3.1,7.45,3.07S32.22,4,32.22,4s-.77,1.09-1.62.67a16.6,16.6,0,0,0-8.88-2.6c-4.76.1-9.8,2.78-11.14,3.15S.35,5,.35,5Z"/>
            <polygon class="aca60db2-a3ee-4031-aab4-3ae59dc5a57f"
                     points="8.44 3.36 8.14 5.8 8.69 5.65 8.99 3.4 8.44 3.36"/>
            <polygon class="aca60db2-a3ee-4031-aab4-3ae59dc5a57f"
                     points="14.36 1.4 14.36 4.12 14.85 3.92 14.7 1.28 14.36 1.4"/>
            <polygon class="aca60db2-a3ee-4031-aab4-3ae59dc5a57f" points="19.58 0.13 19.7 2.52 20.05 0.08 19.58 0.13"/>
            <polygon class="aca60db2-a3ee-4031-aab4-3ae59dc5a57f"
                     points="26.3 0.71 25.67 3.08 25.98 2.94 26.75 0.84 26.3 0.71"/>
        </g>
    </g>
</svg>