<svg class="copt-logo" xmlns="http://www.w3.org/2000/svg" xmlns:xlink="http://www.w3.org/1999/xlink" width="1943.02" height="602.33" viewBox="0 0 1943.02 602.33">
  <defs>
    <linearGradient id="b6ec83e4-5dc9-4676-99da-b4ad1e205c60" x1="1.04" y1="302.09" x2="624.6" y2="302.09" gradientUnits="userSpaceOnUse">
      <stop offset="0" stop-color="#90c33a"/>
      <stop offset="0.48" stop-color="#48ae6d"/>
      <stop offset="0.83" stop-color="#1ba08d"/>
      <stop offset="1" stop-color="#099b9a"/>
    </linearGradient>
    <linearGradient id="a01c58c6-a87a-405a-9f7d-ecddc211e1d9" x1="521.7" y1="302.09" x2="1146.36" y2="302.09" xlink:href="#b6ec83e4-5dc9-4676-99da-b4ad1e205c60"/>
    <linearGradient id="beecf068-1f9a-478f-8832-eee929270ab6" x1="1051.15" y1="302.09" x2="1570.2" y2="302.09" gradientUnits="userSpaceOnUse">
      <stop offset="0" stop-color="#fff33b"/>
      <stop offset="0.29" stop-color="#fed32f"/>
      <stop offset="0.91" stop-color="#fd8410"/>
      <stop offset="1" stop-color="#fd780c"/>
    </linearGradient>
    <linearGradient id="b8cd721f-76d2-4787-91a6-b2ba702716a1" x1="1456.67" y1="300.24" x2="1937.64" y2="300.24" gradientUnits="userSpaceOnUse">
      <stop offset="0" stop-color="#c860c4"/>
      <stop offset="0.43" stop-color="#8c4ab5"/>
      <stop offset="0.81" stop-color="#5d39a9"/>
      <stop offset="1" stop-color="#4b32a5"/>
    </linearGradient>
    <linearGradient id="a15cc835-7fa9-4821-ba61-6d3d6a599964" x1="0.88" y1="49.23" x2="86.85" y2="49.23" gradientUnits="userSpaceOnUse">
      <stop offset="0" stop-color="#f99b22"/>
      <stop offset="0.14" stop-color="#f89027"/>
      <stop offset="0.4" stop-color="#f67235"/>
      <stop offset="0.73" stop-color="#f2424c"/>
      <stop offset="1" stop-color="#ee1661"/>
    </linearGradient>
  </defs>
  <g id="fdbbf148-30eb-485b-a3ea-bef86fdcf971">
    <g id="b1150faf-1709-46e9-b575-13dbed5a81cd">
      <g>
        <g>
          <g>
            <path d="M627.89,360.41h-1.12c0-.23.06-.46.08-.7h-1.12c0-.23.06-.46.08-.69h-1.13c0-.24.06-.47.08-.7h-1.12c0-.23.06-.46.08-.7H622.6c0-.23.06-.46.08-.7h-1.13c0-.23.06-.46.08-.69h-1.12c0-.24.06-.47.08-.7h-1.12c0-.23.06-.46.08-.7h-1.13c0-.23.06-.46.08-.7h-1.12c0-.23.06-.46.08-.69h-1.12c0-.24.06-.47.08-.7H615.3c0-.23.05-.46.08-.7h-1.13c0-.23.06-.46.08-.69h-1.12c0-.24.06-.47.08-.7h-1.12c0-.24.05-.47.08-.7h-1.13c0-.23.06-.46.08-.7h-1.12c0-.23.06-.46.08-.69H609c0-.24.06-.47.08-.7H608c0-.24.06-.46.08-.7H607c0-.23.06-.46.08-.7h-1.12c0-.23.06-.46.08-.69h-1.13c0-.24.06-.47.08-.7h-1.12c0-.24.06-.46.08-.7h-1.12c0-.23.06-.46.08-.7h-1.13c0-.23.06-.46.08-.69h-1.12c0-.24.06-.47.08-.7h-1.12c0-.23.06-.46.08-.7H598.6c0-.23.06-.46.08-.7h-1.12c0-.23.06-.46.08-.69h-1.12c0-.24.06-.47.08-.7h-1.12c0-.23,0-.46.08-.7h-1.13c0-.23.06-.46.08-.7h-1.12c0-.23.06-.46.08-.69h-1.12c0-.24,0-.47.08-.7H591.3c0-.23.06-.46.08-.7h-1.12c0-.23.06-.46.08-.7h-1.12c0-.23.06-.46.08-.69h-1.13c0-.24.06-.47.08-.7h-1.12c0-.23.06-.46.08-.7h-1.12c0-.23.06-.46.08-.69H585c0-.24.06-.47.08-.7H584c0-.24.06-.47.08-.7H583c0-.23.06-.46.08-.7h-1.13c0-.23.06-.46.08-.69h-1.12c0-.24.06-.47.08-.7h-1.12c0-.24.06-.47.08-.7h-1.13c0-.23.06-.46.08-.7h-1.12c0-.23.06-.46.08-.69H576.7c0-.24.06-.47.08-.7h-1.12c0-.24.05-.46.08-.7h-1.13c0-.23.06-.46.08-.7h-1.12c0-.23.06-.46.08-.69h-1.12c0-.24.05-.47.08-.7h-1.13c0-.23.06-.46.08-.7h-1.12c0-.23.06-.46.08-.7H569.4c0-.23.06-.46.08-.69h-1.13c0-.24.06-.47.08-.7h-1.12c0-.23.06-.46.08-.7h-1.12c0-.23.06-.46.08-.69h-1.13c0-.24.06-.47.08-.7h-1.12c0-.24.06-.47.08-.7h-1.12c0-.23.06-.46.08-.7h-1.13c0-.23.06-.46.08-.69h-1.12c0-.24.06-.47.08-.7H560c0-.24.06-.47.08-.7H559c0-.23,0-.46.08-.7h-1.13c0-.23.06-.46.08-.69h-1.12a1.1,1.1,0,0,1,0-.18h72a259.48,259.48,0,0,0-111.52-190.2c-.34-.24-.7-.46-1-.7l-1-.7c-.34-.24-.69-.46-1-.69s-.7-.47-1-.7-.7-.46-1-.7-.71-.46-1.05-.7-.7-.46-1-.69l-1.05-.7c-.34-.24-.69-.46-1-.7s-.7-.46-1-.7l-1-.69-1.05-.7c-.34-.24-.7-.46-1-.7s-.7-.46-1-.7l-1.05-.69c-.34-.24-.7-.46-1-.7s-.7-.46-1.05-.7-.69-.46-1-.69l-1-.7c-.34-.24-.7-.46-1-.7l-1.05-.7c-.34-.24-.7-.46-1-.7l-1-.69-1.05-.7c-.34-.24-.7-.46-1-.7s-.7-.46-1-.7l-1.05-.69c-.34-.24-.69-.46-1-.7s-.7-.46-1-.7l-1.05-.7-1-.69c-.34-.24-.7-.46-1-.7s-.7-.46-1-.7l-1.05-.7c-.34-.23-.7-.45-1-.69s-.7-.46-1-.7l-1.05-.7c-.34-.24-.7-.46-1-.7s-.7-.45-1-.69l-1.05-.7c-.34-.24-.69-.46-1-.7l-1-.69-1.05-.7c-.34-.24-.69-.46-1-.7s-.7-.46-1-.7l-1-.69c-.35-.24-.71-.46-1.05-.7s-.7-.46-1-.7-.7-.46-1.05-.7l-1-.69c-.34-.24-.7-.46-1-.7s-.7-.46-1-.7l-1.05-.7-1-.69c-.34-.24-.7-.46-1-.7l-1.05-.7c-.34-.24-.69-.46-1-.69s-.7-.47-1-.7l-1-.7c-.35-.24-.71-.46-1.05-.7s-.7-.46-1-.69l-1.05-.7c-.34-.24-.7-.46-1-.7s-.7-.46-1-.7l-1-.69-1.05-.7c-.34-.24-.7-.46-1-.7s-.7-.46-1-.7-.69-.46-1-.69-.7-.46-1-.7-.7-.46-1-.7-.69-.46-1-.7l-1-.69c-.34-.24-.7-.46-1-.7l-1.05-.7c-.34-.24-.7-.46-1-.7l-1-.69-1.05-.7c-.34-.24-.7-.46-1-.7s-.7-.46-1-.7l-1.05-.69c-.34-.24-.69-.46-1-.7s-.7-.46-1-.7l-1-.69-1.05-.7c-.34-.24-.7-.46-1-.7s-.7-.46-1-.7l-1.05-.7c-.34-.23-.7-.45-1-.69s-.7-.46-1.05-.7-.69-.46-1-.7-.7-.46-1-.7-.7-.45-1-.69l-1.05-.7c-.34-.24-.69-.46-1-.69s-.7-.47-1.05-.7l-1-.7-1.05-.7c-.34-.24-.7-.46-1.05-.7s-.69-.46-1-.69A258.41,258.41,0,0,0,265,7.22C121.62,7.22,5.37,123.47,5.37,266.87A259.4,259.4,0,0,0,120.59,482.66l1,.7,1,.69,1,.7c.34.24.69.47,1,.7l1,.69,1,.71,1,.69,1.05.7c.35.23.7.46,1,.7l1.05.69c.34.24.69.47,1,.7l1,.7,1.05.7,1,.69,1,.7,1.05.7,1,.7,1.05.7,1,.69,1,.7c.34.23.7.46,1,.7l1,.69,1.05.7,1,.7,1,.7,1,.69c.34.24.7.47,1,.7l1,.69,1.05.71,1,.69,1.05.7c.34.24.69.46,1,.69l1,.7,1,.7,1,.7,1,.7,1,.69,1,.7c.34.24.69.47,1,.7l1,.7,1,.69,1.05.7,1,.7,1.05.7,1,.69c.34.24.69.47,1,.7l1.05.7,1,.69,1,.71,1,.69,1,.7,1,.69c.34.24.7.47,1,.71l1,.69,1,.7,1,.69,1.05.7c.34.24.69.47,1,.7l1,.7,1,.69,1.05.7c.34.24.69.47,1,.7s.7.46,1,.7l1,.69c.34.24.69.47,1,.7l1,.7,1,.7,1,.69,1,.7,1.05.7,1,.69,1,.71,1,.69,1.05.7,1,.7,1,.69,1,.7,1,.7,1.05.7,1,.69c.34.24.7.47,1.05.7l1,.7,1,.7,1,.69,1,.7c.34.24.69.46,1,.69l1.05.71,1,.69c.35.24.7.46,1,.7l1.05.7,1,.69,1.05.7c.34.24.69.46,1,.7l1.05.7,1,.69,1,.7,1,.7,1,.7,1,.69c.34.24.69.47,1,.7A258.4,258.4,0,0,0,370.38,597c135.38,0,246.54-103.61,258.56-235.85h-1.13C627.84,360.88,627.87,360.65,627.89,360.41ZM346,290.67a84.52,84.52,0,0,1-59.23,57.73,84.25,84.25,0,0,1,74.83-95,.88.88,0,0,1,.05.15h.81c.07.24.16.46.23.7h.81c.07.23.17.46.24.69h.8c.08.24.17.46.24.7h.81c.07.24.16.46.23.7h.81c.07.24.17.46.24.7h.8c.08.23.17.46.24.69h.81c.07.24.16.46.23.7h.81c.07.24.17.46.24.7h.8c.07.23.17.46.24.7h.81c.07.23.16.46.23.69h.81c.07.24.17.46.24.7h.8c.07.24.17.46.24.7H375c.07.23.16.46.23.7H376c.07.23.16.46.23.69H377c.07.24.17.46.24.7h.81c.07.24.16.46.23.7h.81c.07.23.16.46.23.7h.81c.07.23.17.46.24.69h.8c.08.24.17.46.24.7h.81c.07.24.16.46.23.7h.81c.07.23.17.46.24.69h.8c.08.24.17.47.24.7h.81c.07.24.16.46.23.7h.81c.07.24.17.46.24.7h.8c.07.23.17.46.24.69h.81c.07.24.16.47.23.7h.81c.07.24.17.46.24.7h.8c.07.24.17.46.24.7h.81c.07.23.16.46.23.69h.81c.07.24.17.47.24.7h.8c.07.24.17.46.24.7h.81c.07.23.16.46.23.7h.81c.07.23.17.46.23.69h.81c.07.24.17.46.24.7h.81c.07.24.16.46.23.7H399c.07.23.16.46.23.7H400c.07.23.17.46.24.69h.8c.08.24.17.46.24.7h.81c.07.24.16.46.23.7h.81c.07.23.17.46.24.7h.8c.08.23.17.46.24.69h.81c.07.24.16.46.23.7h.81c.07.24.17.46.24.7h.8c.08.23.17.46.24.7h.81c.07.23.16.46.23.69h.81c.07.24.17.46.24.7h.8c.07.24.17.46.24.7h.81c.07.23.16.46.23.69h.81c.07.24.17.47.23.7h.81c.07.24.17.46.24.7h.81c.07.24.16.46.23.7h.81c.07.23.17.46.23.69h.81c.07.24.17.47.24.7h.81a1.27,1.27,0,0,0,.06.18Z" style="fill: url(#b6ec83e4-5dc9-4676-99da-b4ad1e205c60)"/>
            <path d="M370.38,602.33a263.67,263.67,0,0,1-148.49-45.48l-25.34-16.94-.75-.5-78.23-52.3A265,265,0,1,1,416.17,49.16l.38.25.67.44.36.24.69.47.35.23c.24.15.47.31.7.47l.34.23.69.46.37.25c.23.14.45.29.67.44l.38.26c.22.14.44.28.65.43l.4.27.66.44.38.25.65.44.39.26.66.44.39.26.65.44.37.24.68.45.38.26.66.44.38.26c.23.15.45.29.67.45l.37.24c.22.15.44.29.66.45l.4.26.65.43.38.26c.23.15.45.29.67.45l.37.24.66.45.39.26.66.43.38.26.66.44.38.26.67.44.37.25.67.45.4.26.64.43.39.27c.22.14.44.28.65.43l.39.26.66.44.36.24.69.47.36.24c.23.15.46.29.68.45l.38.25.65.44.39.26.66.44.38.25.66.45.38.25.67.45.38.25c.22.15.44.29.66.45l.39.25.65.44.39.26.66.44.37.25c.23.15.45.29.67.45l.38.25.66.44.38.26c.23.14.45.29.67.44l.37.25.67.45.37.25c.23.14.45.29.67.45l.38.25.66.44.38.25.67.45.37.25.68.45.37.25.66.44.39.26.66.44c.12.09.25.17.39.26l.65.44.38.26c.23.14.45.29.67.44l.37.25c.22.15.45.29.67.45l.37.24.67.45.38.25.67.45.37.25c.22.15.45.29.67.45l.37.24.67.45.38.26.66.44.38.25.67.45.38.26.66.44.38.25.66.44.39.26.65.44.39.26.66.44.37.25c.23.14.45.29.67.45l.39.25.66.45.37.24.68.46.36.24.67.45.39.26.65.43.38.26c.23.15.45.29.67.45l.38.25.66.44.38.25.66.45.39.26.66.43.38.26.65.44.39.26c.23.14.45.29.66.44l.38.25.67.45.36.24.69.46.37.25.66.44c.12.09.26.17.4.26l.64.44.4.26.64.43.39.26c.22.15.45.29.66.45l.39.25.65.44.39.26.66.44.37.25.68.45.37.25.66.44.39.26.65.44.39.26c.23.14.45.29.66.44l.37.25c.23.15.46.29.68.45l.38.25.65.44.39.26.66.44.38.25.66.45.38.25.67.45.37.25c.23.14.45.29.67.45l.38.25.67.44.37.25.66.44.4.27.64.43.4.26.65.44a3.94,3.94,0,0,0,.4.26l.64.44.39.25.66.45.39.26.65.43.38.26c.22.14.45.29.67.45l.37.24.67.45.38.25.66.45.38.25c.22.15.45.29.66.44l.38.26c.23.15.45.29.67.45l.38.24.66.45.39.26.65.44.38.25c.23.15.45.29.67.45A264.22,264.22,0,0,1,634.29,313l.53,5.86h-55.3l-.06.59h1.12l-.06.7h1.09l-.06.7h1.12l-.07.69h1.1l-.06.7h1.11l-.06.7h1.09l-.06.69h1.12l-.07.7h1.11l-.06.7h1.09l-.06.7H590l-.06.69H591l-.06.7h1.11l-.06.7h1.11l-.06.7h1.12l-.07.69h1.1l-.07.7h1.09l-.06.7h1.11l-.06.7h1.1l-.06.69h1.12l-.06.7h1.11l-.06.7h1.11l-.07.7h1.08l-.06.69h1.11l-.06.7h1.1l-.06.7h1.13l-.07.7h1.11l-.06.69h1.09l-.06.7h1.11l-.07.7h1.1l-.07.69h1.12l-.06.7h1.11l-.07.7h1.11l-.06.7H614l-.06.69H615l-.06.7H616l-.06.7h1.12l-.06.7h1.1l-.06.69h1.11l-.07.7h1.11l-.06.7h1.09l-.06.7h1.12l-.07.69h1.11l-.06.7h1.09l-.06.7h1.12l-.06.7h1.1l-.06.69h1.12l-.07.7h1.1l-.07.7h1.1l-.06.7h1.1l-.06.69h1.12l-.07.7h1.11l-.07.7h1.11l-.06.7h1.1l-.53,5.86A265,265,0,0,1,370.38,602.33ZM265,12.59A254.3,254.3,0,0,0,123.58,478.2l104.31,69.74A254.31,254.31,0,0,0,623,366.48h-1.07l.07-.69h-1.13l.07-.7h-1.11l.07-.7h-1.09l.07-.7h-1.11l.07-.69h-1.13l.07-.7h-1.11l.07-.7h-1.11l.07-.7h-1.11l.06-.69h-1.09l.06-.7h-1.12l.07-.7h-1.12l.07-.7h-1.11l.07-.69h-1.11l.07-.7h-1.11l.06-.7h-1.09l.06-.7h-1.13l.07-.69h-1.1l.06-.7h-1.09l.06-.7h-1.12l.07-.7H601l.07-.69H600l.07-.7H599l.07-.7h-1.11l.06-.7h-1.11l.07-.69h-1.11l.07-.7h-1.12l.06-.7h-1.09l.06-.69H592.7l.07-.7h-1.11l.06-.7h-1.1l.06-.7h-1.11l.07-.69h-1.12l.06-.7h-1.11l.07-.7h-1.1l.07-.7H585.4l.07-.69h-1.11l.06-.7h-1.11l.07-.7h-1.11l.07-.7h-1.13l.07-.69h-1.1l.07-.7h-1.11l.07-.7H578.1l.06-.7h-1.1l.06-.69H576l.06-.7H575l.06-.7h-1.11l.07-.7h-1.11L573,333h-1.11l.07-.7H570.8l.06-.7h-1.11l.07-.69h-1.11l.07-.7h-1.13l.07-.7h-1.1l.07-.7h-1.11l.07-.69h-1.1l.06-.7h-1.1l.06-.7h-1.13l.06-.7h-1.11l.07-.69h-1.1l.07-.7h-1.11l.07-.7h-1.1l.07-.7h-1.13l.07-.69h-1.11l.07-.7h-1.13l.07-.7h-1.09l.06-.7h-1.09l.06-.69H552l.07-.7H551l1-11,4.87.07H623a253.49,253.49,0,0,0-108.61-180.4l-.45-.3-.59-.39-.44-.3c-.21-.13-.41-.27-.61-.41l-.44-.29c-.2-.13-.4-.26-.59-.4l-.45-.3-.61-.4-.44-.3-.59-.39-.45-.3-.6-.4-.45-.31c-.2-.12-.39-.25-.58-.39l-.46-.3-.6-.4-.43-.29-.61-.41-.44-.29-.6-.4-.44-.29-.61-.41c-.15-.11-.29-.2-.44-.29l-.6-.41-.43-.29c-.21-.13-.41-.27-.61-.41l-.45-.29-.59-.4-.45-.3-.6-.4-.45-.3-.59-.39-.45-.31-.59-.39-.46-.31c-.19-.13-.39-.25-.58-.39l-.46-.3-.59-.4-.43-.29-.62-.41-.44-.3-.59-.39-.45-.3-.6-.4-.44-.3-.6-.4-.45-.3-.59-.39-.46-.31-.59-.39-.44-.3-.6-.4c-.15-.11-.3-.2-.44-.29l-.61-.41-.45-.3-.59-.39-.43-.29-.62-.42-.42-.28c-.21-.14-.42-.27-.62-.42l-.43-.28-.61-.41-.45-.3-.59-.39c-.17-.12-.31-.22-.46-.31l-.58-.39-.45-.3-.6-.4c-.15-.11-.29-.2-.44-.29l-.6-.4c-.16-.12-.3-.21-.44-.3l-.61-.41c-.15-.11-.3-.2-.44-.29l-.59-.4-.45-.3-.6-.4-.45-.3c-.2-.13-.4-.26-.59-.4l-.44-.29-.6-.4-.46-.31c-.2-.13-.39-.25-.58-.39l-.46-.3c-.2-.13-.4-.26-.59-.4l-.44-.29-.61-.41-.45-.3-.58-.39-.45-.3c-.21-.13-.41-.27-.61-.41l-.43-.29-.6-.4-.45-.29-.6-.41-.44-.29-.6-.41-.45-.29-.6-.4-.45-.3-.58-.39-.46-.31-.58-.39-.47-.31-.58-.39-.46-.31-.59-.39-.44-.3-.6-.4-.45-.3c-.2-.13-.4-.26-.59-.4l-.44-.29c-.21-.13-.41-.27-.61-.41l-.43-.28-.61-.41-.44-.3c-.2-.13-.41-.26-.6-.4l-.45-.3-.59-.39-.45-.3-.6-.4-.45-.31-.59-.39-.45-.3c-.2-.13-.4-.26-.59-.4l-.46-.3-.58-.39-.46-.31-.59-.39c-.16-.12-.3-.21-.44-.3l-.61-.4-.44-.3-.6-.4-.45-.3-.59-.39c-.16-.11-.3-.21-.45-.3l-.6-.4L443,80l-.61-.41-.44-.3-.6-.4-.45-.3-.59-.39-.45-.3-.6-.4-.44-.3-.6-.4c-.15-.11-.3-.2-.44-.29l-.6-.4-.46-.31-.58-.39-.47-.31-.57-.38c-.17-.12-.31-.22-.46-.31s-.4-.26-.59-.4l-.44-.29-.61-.41-.42-.28-.63-.42-.44-.29-.59-.4-.45-.3-.6-.4c-.15-.11-.3-.2-.44-.29l-.6-.41-.44-.29-.6-.4c-.16-.12-.31-.21-.45-.3s-.4-.26-.59-.4l-.44-.29-.61-.41-.43-.29-.62-.41c-.15-.11-.29-.2-.44-.29l-.59-.4-.45-.3-.6-.41-.45-.29-.59-.4-.46-.3-.58-.39c-.16-.12-.31-.21-.45-.3l-.6-.4L419,64l-.6-.4-.44-.29-.6-.4a5,5,0,0,0-.45-.3l-.6-.41-.44-.29c-.2-.13-.4-.26-.59-.4l-.46-.3-.59-.4-.46-.31-.57-.38-.48-.32-.57-.38-.46-.31-.59-.39-.45-.3c-.2-.13-.4-.26-.59-.4A252.78,252.78,0,0,0,265,12.59Zm17.19,342.57-.79-6.06a90.42,90.42,0,0,1-.8-11.79A89.5,89.5,0,0,1,361,248l4.38-.45.18.58h.83l.21.69h.83l.21.7h.84l.21.7h.83l.21.7h.85l.21.69h.82l.21.7h.83l.21.7h.83l.21.69h.84l.21.7h.84l.21.7h.82l.22.7h.83l.21.69h.83l.21.7H380l.21.7H381l.22.7h.84l.22.69h.83l.21.7h.83l.21.7h.84l.21.7h.82l.21.69h.84l.21.7h.83l.21.7h.85l.21.7h.81l.21.69h.84l.21.7h.82l.21.7h.85l.21.7h.84l.21.69h.83l.21.7h.83l.21.7h.82l.21.7h.84l.21.69h.83l.21.7h.84l.21.7h.84l.21.69h.82l.21.7H404l.21.7H405l.21.7h.84l.21.69h.82l.22.7h.82l.22.7h.84l.21.7h.82l.21.69h.85l.21.7h.82l.21.7h.84l.21.7h.83l.21.69h.84l.21.7h.82l.21.7h.83l.22.7h.83l.21.69h.82l.22.7h.84l.21.7h.86l1.11,3.75.09.28,2,6.89H349.91a90.26,90.26,0,0,1-61.78,57.55Zm76.31-96a78.77,78.77,0,0,0-67.15,78.13c0,1.31,0,2.64.11,4a79.48,79.48,0,0,0,49.35-52.15L342,285.3h55.25l-.17-.59h-.85l-.2-.7h-.83l-.2-.7h-.84l-.2-.69h-.85l-.2-.7H392l-.2-.7H391l-.2-.7h-.84l-.2-.7h-.83l-.21-.69h-.85l-.2-.7h-.84l-.2-.7h-.84l-.2-.69h-.84l-.2-.7h-.84l-.21-.7h-.84l-.2-.7h-.85l-.2-.69h-.84l-.2-.7h-.83l-.21-.7h-.84l-.2-.7h-.84l-.21-.69h-.83l-.21-.7h-.85l-.2-.7h-.83l-.21-.7h-.84l-.2-.69h-.84l-.2-.7h-.84l-.2-.7h-.85l-.2-.69h-.83l-.21-.7H368l-.2-.7H367l-.21-.7H366l-.21-.69h-.84l-.2-.7h-.84l-.2-.7h-.84l-.2-.7h-.84l-.2-.69h-.84l-.21-.7h-.83l-.21-.7h-.84Z" style="fill: #2636b2"/>
          </g>
          <g>
            <path d="M265,351.26a84.39,84.39,0,1,1,81-108.19h177.6C511.56,110.83,400.4,7.22,265,7.22,121.62,7.22,5.37,123.47,5.37,266.87S121.62,526.52,265,526.52c135.38,0,246.54-103.61,258.56-235.85H346A84.4,84.4,0,0,1,265,351.26Z" style="fill: #f2f9f9"/>
            <path d="M265,531.89A265,265,0,0,1,77.62,79.47,265,265,0,0,1,528.93,242.58l.53,5.86H342l-1.13-3.86a79,79,0,1,0,0,44.58L342,285.3h187.5l-.53,5.86A265,265,0,0,1,265,531.89Zm0-519.3A254.28,254.28,0,0,0,85.22,446.67,254.28,254.28,0,0,0,517.62,296H349.91a90.61,90.61,0,0,1-30.63,42.33A88.89,88.89,0,0,1,265,356.63a89.76,89.76,0,0,1,0-179.52,88.89,88.89,0,0,1,54.26,18.26,90.63,90.63,0,0,1,30.63,42.32H517.62A254.31,254.31,0,0,0,265,12.59Z" style="fill: #2636b2"/>
          </g>
        </g>
        <g>
          <g>
            <path d="M1031.15,121.52l-1.05-.7-1-.7-1-.69c-.34-.24-.69-.47-1-.7l-1-.7-1-.7-1-.69c-.34-.24-.69-.47-1-.7l-1-.7-1-.7-1-.69-1-.7-1-.7-1-.7-1-.69-1-.7c-.34-.24-.69-.46-1-.7l-1-.7-1-.69-1.05-.7-1-.7-1-.69-1.05-.7c-.34-.24-.69-.47-1-.7l-1.05-.7-1-.69-1-.7-1-.7-1.05-.7-1-.69c-.34-.24-.7-.47-1.05-.7l-1-.7-1-.7-1.05-.7-1-.69-1-.7-1-.69-1-.71-1-.69-1.06-.7-1-.69-1-.71-1-.69-1-.7-1-.69c-.34-.24-.69-.47-1-.7l-1-.7-1-.69L980,87.34l-1-.69-1-.7c-.34-.24-.69-.46-1-.7s-.7-.46-1-.7l-1.05-.69c-.34-.24-.69-.47-1-.7l-1-.7-1.05-.69c-.34-.24-.69-.47-1-.7s-.69-.47-1-.7-.7-.46-1-.7l-1-.69c-.34-.24-.69-.47-1-.7s-.7-.46-1-.7l-1-.7-1-.69-1-.7-1-.7-1-.7-1-.69-1-.7-1-.7L956,71.3l-1-.69-1-.7-1-.7-1-.69-1-.7c-.34-.24-.69-.47-1-.7l-1-.7-1-.69-1.05-.7-1-.7-1.05-.7-1-.69c-.34-.24-.7-.47-1-.7l-1-.7-1.05-.7-1-.69-1-.7-1-.7-1-.69-1.05-.71-1-.69-1.06-.7-1-.69-1-.71-1-.69c-.35-.23-.7-.46-1-.7l-1-.69c-.34-.24-.69-.47-1-.7A258.4,258.4,0,0,0,781.35,7.22C638,7.22,521.7,123.47,521.7,266.87A259.39,259.39,0,0,0,636.91,482.66c.35.23.7.46,1,.7l1,.69c.34.24.69.47,1,.7s.7.46,1,.7l1,.69,1,.71,1,.69,1,.7,1,.7,1,.69,1,.7,1,.7,1,.7,1,.69,1,.7,1,.69,1,.71,1,.69,1.05.7,1,.69,1.05.7c.34.24.69.47,1,.7l1,.7,1.05.7,1,.69c.34.24.7.47,1,.7l1,.7,1,.7,1,.69,1.05.7c.34.24.69.46,1,.69s.7.47,1,.71l1,.69,1,.7,1,.7,1,.69,1,.7,1,.7,1.05.7,1,.69,1,.7,1,.7,1,.7,1,.69,1,.7,1,.7,1.05.7,1,.69,1,.7,1.05.7c.35.23.7.46,1,.7l1,.69c.34.24.69.47,1,.7s.69.47,1,.7.7.46,1,.7l1.05.69c.34.24.69.47,1,.7s.7.46,1,.7l1.05.69,1,.71,1,.69,1.05.7,1,.7,1,.69,1.05.7,1,.7,1,.69,1,.7,1,.7,1,.69,1.05.71,1,.69,1,.7,1,.69,1,.7c.34.24.69.47,1,.7l1,.7,1,.7,1,.69,1,.7,1,.7,1.05.7,1,.69,1,.7c.34.24.69.46,1,.69s.7.47,1,.71l1,.69,1.05.7,1,.7,1,.69,1.05.71,1,.69,1,.7,1,.69,1,.7,1,.7,1.05.7,1,.69,1,.7,1.05.7A258.47,258.47,0,0,0,886.71,597c143.4,0,259.65-116.25,259.65-259.65A259.41,259.41,0,0,0,1031.15,121.52ZM866.79,253.09a86.5,86.5,0,0,1-65.53,98,86.57,86.57,0,0,1,65.53-98Z" style="fill: url(#a01c58c6-a87a-405a-9f7d-ecddc211e1d9)"/>
            <path d="M886.71,602.33a263.73,263.73,0,0,1-148.5-45.48L633.92,487.12A264.81,264.81,0,0,1,516.33,266.87c0-146.14,118.88-265,265-265A263.67,263.67,0,0,1,929.84,47.33l104.34,69.75a264.81,264.81,0,0,1,117.55,220.23C1151.73,483.44,1032.84,602.33,886.71,602.33ZM781.35,12.6c-140.21,0-254.28,114.06-254.28,254.27A254.09,254.09,0,0,0,639.91,478.2l104,69.5a253.37,253.37,0,0,0,142.84,43.88c140.21,0,254.27-114.06,254.27-254.27A254.1,254.1,0,0,0,1028.15,126l-104-69.52A253.34,253.34,0,0,0,781.35,12.6Zm15.52,345-.91-5.71a92.7,92.7,0,0,1-1.18-14.63,91.53,91.53,0,0,1,70.78-89.45l5.63-1.33.91,5.71a92.59,92.59,0,0,1,1.17,14.63,91.52,91.52,0,0,1-70.77,89.45Zm65.35-97.74a80.8,80.8,0,0,0-56.69,77.4c0,2.3.1,4.63.3,7a80.8,80.8,0,0,0,56.7-77.4C862.53,264.56,862.42,262.24,862.22,259.91Z" style="fill: #2636b2"/>
          </g>
          <g>
            <path d="M781.35,7.22C638,7.22,521.7,123.47,521.7,266.87S638,526.52,781.35,526.52,1041,410.27,1041,266.87,924.75,7.22,781.35,7.22Zm0,346.2a86.55,86.55,0,1,1,86.55-86.55A86.55,86.55,0,0,1,781.35,353.42Z" style="fill: #f2f9f9"/>
            <path d="M781.35,531.89c-146.14,0-265-118.89-265-265s118.88-265,265-265,265,118.88,265,265S927.48,531.89,781.35,531.89Zm0-519.29c-140.21,0-254.28,114.06-254.28,254.27S641.14,521.14,781.35,521.14s254.28-114.06,254.28-254.27S921.56,12.6,781.35,12.6Zm0,346.2a91.93,91.93,0,1,1,91.92-91.93A92,92,0,0,1,781.35,358.8Zm0-173.11a81.18,81.18,0,1,0,81.18,81.18A81.28,81.28,0,0,0,781.35,185.69Z" style="fill: #2636b2"/>
          </g>
        </g>
        <g>
          <g>
            <path d="M1464.52,117.82l-1-.69-1-.7-1-.7-1.05-.7-1-.69-1-.7-1-.7-1-.7-1-.69-1-.7-1-.7-1-.69-1-.71-1-.69c-.34-.24-.69-.47-1-.7l-1-.69-1-.7c-.34-.24-.69-.47-1-.7s-.7-.46-1-.7l-1-.69c-.34-.24-.69-.47-1-.7l-1-.7-1-.7-1-.69c-.34-.24-.69-.47-1-.7l-1-.7-1-.7-1-.69-1-.7-1-.7-1-.7-1-.7-1-.69-1-.7-1-.69-1-.71-1-.69-1-.7-1.05-.7-1-.69-1-.7-1-.7-1-.7-1-.69-1.05-.7c-.34-.24-.69-.46-1-.69l-1.06-.71-1-.69-1-.7-1-.7-1-.69-1-.7c-.34-.24-.69-.47-1-.7l-1-.7-1-.69-1.05-.7-1-.7-1-.7-1-.69-1-.7-1-.7-1.05-.7-1-.69-1-.7c-.34-.24-.69-.47-1-.7l-1-.69-1-.71-1-.69c-.34-.24-.69-.47-1-.7l-1-.69-1-.7c-.34-.24-.69-.47-1-.7l-1-.7-1.05-.69c-.34-.24-.69-.47-1-.7l-1-.7-1-.7-1-.69c-.34-.24-.69-.47-1-.7l-1-.7-1-.7-1-.7-1-.69-1-.7-1-.69-1-.71-1-.69-1-.7-1-.69-1-.71-1-.69-1-.7-1-.7-1-.69c-.34-.24-.7-.47-1-.7l-1-.7-1.05-.7-1-.69-1-.7-1-.7A236.94,236.94,0,0,0,1226.83,7.22H1051.15v519.3h1v.7h1v.69h1v.7h1v.7h1v.7h1v.69h1v.7h1v.7h1v.7h1v.69h1v.7h1v.7h1v.7h1v.69h1v.7h1v.7h1v.69h1v.7h1v.7h1v.7h1v.69h1v.7h1.05v.7h1v.7h1V544h1v.7h1v.7h1v.7h1.05v.69h1v.7h1v.7h1v.7h1v.69h1v.7h1v.7h1v.7h1v.69h1v.7h1v.7h1v.69h1v.7h1v.7h1v.7h1v.69h1v.7h1v.7h1v.7h1V560h1v.7h1v.7h1v.7h1v.69h1v.7h1v.7h1v.7h1v.69h1v.7h1.05v.7h1v.7h1v.69h1v.7h1v.7h1v.7h1.05v.69h1v.7h1v.7h1v.7h1v.69h1v.7h1v.7h1V576h1v.7h1v.7h1v.7h1v.69h1v.7h1v.7h1v.7h1v.69h1v.7h1v.7h1v.7h1v.69h1v.7h1v.7h1v.7h1v.69h1v.7h1v.7h1v.69h1v.7h1v.7h1.05v.7h1v.69h1v.7h1v.7h1v.7h1v.69h1v.7h1v.7h1v.7h173.1V553.68h2.58c131.45,0,238-106.56,238-238A237.77,237.77,0,0,0,1464.52,117.82Z" style="fill: url(#beecf068-1f9a-478f-8832-eee929270ab6)"/>
            <path d="M1335,602.33H1151.14v-.7h-1v-.69h-1v-.7h-1v-.7h-1v-.69h-1v-.7h-1v-.7h-1v-.7h-1v-.69h-1v-.7h-1v-.7h-1V594h-1.05v-.7h-1v-.69h-1v-.7h-1v-.69h-1v-.7h-1v-.7h-1v-.7h-1v-.7h-1v-.69h-1V587h-1v-.7h-1v-.7h-1.05v-.69h-1v-.7h-1v-.7h-1v-.69h-1v-.7h-1v-.7h-1.05v-.7h-1V580h-1v-.7h-1v-.7h-1v-.7h-1v-.7h-1v-.69h-1v-.7h-1v-.7h-1v-.69h-1v-.7h-1V573h-1v-.69h-1v-.7h-1V571h-1v-.7h-1v-.7h-1v-.69h-1v-.7h-1v-.7h-1v-.69h-1v-.7h-1v-.7h-1.05v-.7h-1V564h-1v-.69h-1v-.7h-1v-.7h-1v-.7h-1.05v-.69h-1v-.7h-1v-.7h-1v-.69h-1v-.7h-1V557h-1v-.7h-1v-.69h-1v-.7h-1v-.7h-1v-.7h-1v-.7h-1v-.69h-1v-.7h-1v-.7h-1V550h-1v-.7h-1v-.7h-1v-.69h-1v-.7h-1v-.7h-1v-.7h-1v-.7h-1v-.69h-1v-.7h-1v-.7h-1v-.69h-1v-.7h-1V541h-1.05v-.7h-1v-.69h-1v-.7h-1v-.7h-1v-.7h-1v-.69h-1.05v-.7h-1v-.7h-1v-.69h-1V534h-1v-.7h-1v-.7h-1v-.7h-1V1.85h181a242.14,242.14,0,0,1,136.4,41.79l104.3,69.72a243.18,243.18,0,0,1,108,202.31c0,132.67-106.7,240.89-238.8,243.34v0H1335Zm-173.1-10.75h162.35V548.31h8c128.27,0,232.64-104.36,232.64-232.64a232.47,232.47,0,0,0-103.3-193.39L1357.36,52.64a231.64,231.64,0,0,0-130.53-40h-170.3V521.14h1v.7h1v.7h1.05v.7h1v.69h1v.7h1v.7h1V526h1v.7h1.05v.7h1v.7h1v.7h1v.69h1v.7h1v.7h1v.69h1v.7h1v.7h1v.69h1v.7h1v.7h1v.7h1v.7h1v.7h1v.69h1v.7h1v.7h1V540h1v.7h1v.7h1v.69h1v.7h1v.7h1v.7h1v.7h1v.69h1v.7h1v.7h1.05v.7h1v.69h1v.7h1v.7h1v.69h1v.7h1v.7h1v.7h1v.69h1v.7h1v.7h1v.7h1V556h1v.7h1v.7h1v.69h1v.7h1v.7h1v.7h1v.7h1v.7h1v.69h1v.7h1v.69h1v.7h1v.7h1v.7h1v.69h1v.7h1.05v.7h1v.7h1v.7h1V570h1v.7h1v.7h1v.69h1v.7h1v.7h1v.69h1v.7h1v.7h1v.7h1v.7h1v.69h1v.7h1v.7h1v.7h1v.69h1v.7h1v.7h1v.69h1v.7h1v.7h1v.7h1v.7h1V586h1v.7h1.05v.7h1v.69h1v.7h1v.7h1v.69h1v.7h1.05Z" style="fill: #2636b2"/>
          </g>
          <g>
            <path d="M1226.83,7.22H1051.15v519.3h173.1V483.24h2.58c131.45,0,238-106.56,238-238S1358.28,7.22,1226.83,7.22Zm0,302.92h-2.58V180.32h2.58a64.91,64.91,0,1,1,0,129.82Z" style="fill: #f2f9f9"/>
            <path d="M1229.63,531.9H1045.78V1.85h181c134.2,0,243.38,109.18,243.38,243.38,0,133.27-107.66,241.86-240.58,243.37Zm-173.1-10.75h162.35V477.87h7.75c128.48,0,232.84-104.36,232.84-232.64S1355.11,12.6,1226.83,12.6h-170.3Zm170.3-205.63h-7.95V174.94h7.95a70.29,70.29,0,0,1,0,140.58Zm2.8-129.76v119a59.54,59.54,0,0,0,0-118.95Z" style="fill: #2636b2"/>
          </g>
        </g>
        <g>
          <g>
            <polygon points="1936.6 75.81 1936.6 75.11 1935.56 75.11 1935.56 74.42 1934.51 74.42 1934.51 73.72 1933.47 73.72 1933.47 73.02 1932.43 73.02 1932.43 72.33 1931.38 72.33 1931.38 71.63 1930.34 71.63 1930.34 70.93 1929.3 70.93 1929.3 70.23 1928.26 70.23 1928.26 69.53 1927.21 69.53 1927.21 68.84 1926.17 68.84 1926.17 68.14 1925.13 68.14 1925.13 67.44 1924.08 67.44 1924.08 66.75 1923.04 66.75 1923.04 66.05 1922 66.05 1922 65.35 1920.95 65.35 1920.95 64.65 1919.91 64.65 1919.91 63.96 1918.87 63.96 1918.87 63.26 1917.82 63.26 1917.82 62.56 1916.78 62.56 1916.78 61.86 1915.74 61.86 1915.74 61.17 1914.69 61.17 1914.69 60.47 1913.65 60.47 1913.65 59.77 1912.61 59.77 1912.61 59.07 1911.57 59.07 1911.57 58.38 1910.52 58.38 1910.52 57.68 1909.48 57.68 1909.48 56.98 1908.43 56.98 1908.43 56.28 1907.39 56.28 1907.39 55.59 1906.35 55.59 1906.35 54.89 1905.31 54.89 1905.31 54.19 1904.26 54.19 1904.26 53.49 1903.22 53.49 1903.22 52.8 1902.18 52.8 1902.18 52.1 1901.13 52.1 1901.13 51.4 1900.09 51.4 1900.09 50.71 1899.05 50.71 1899.05 50.01 1898 50.01 1898 49.31 1896.96 49.31 1896.96 48.61 1895.92 48.61 1895.92 47.92 1894.87 47.92 1894.87 47.22 1893.83 47.22 1893.83 46.52 1892.79 46.52 1892.79 45.82 1891.74 45.82 1891.74 45.13 1890.7 45.13 1890.7 44.43 1889.66 44.43 1889.66 43.73 1888.62 43.73 1888.62 43.03 1887.57 43.03 1887.57 42.34 1886.53 42.34 1886.53 41.64 1885.49 41.64 1885.49 40.94 1884.44 40.94 1884.44 40.24 1883.4 40.24 1883.4 39.55 1882.36 39.55 1882.36 38.85 1881.31 38.85 1881.31 38.15 1880.27 38.15 1880.27 37.45 1879.23 37.45 1879.23 36.76 1878.18 36.76 1878.18 36.06 1877.14 36.06 1877.14 35.36 1876.1 35.36 1876.1 34.66 1875.06 34.66 1875.06 33.97 1874.01 33.97 1874.01 33.27 1872.97 33.27 1872.97 32.57 1871.92 32.57 1871.92 31.88 1870.88 31.88 1870.88 31.18 1869.84 31.18 1869.84 30.48 1868.8 30.48 1868.8 29.78 1867.75 29.78 1867.75 29.09 1866.71 29.09 1866.71 28.39 1865.67 28.39 1865.67 27.69 1864.62 27.69 1864.62 26.99 1863.58 26.99 1863.58 26.3 1862.54 26.3 1862.54 25.6 1861.49 25.6 1861.49 24.9 1860.45 24.9 1860.45 24.2 1859.41 24.2 1859.41 23.51 1858.36 23.51 1858.36 22.81 1857.32 22.81 1857.32 22.11 1856.28 22.11 1856.28 21.41 1855.23 21.41 1855.23 20.72 1854.19 20.72 1854.19 20.02 1853.15 20.02 1853.15 19.32 1852.11 19.32 1852.11 18.63 1851.06 18.63 1851.06 17.93 1850.02 17.93 1850.02 17.23 1848.98 17.23 1848.98 16.53 1847.93 16.53 1847.93 15.84 1846.89 15.84 1846.89 15.14 1845.85 15.14 1845.85 14.44 1844.8 14.44 1844.8 13.74 1843.76 13.74 1843.76 13.05 1842.72 13.05 1842.72 12.35 1841.67 12.35 1841.67 11.65 1840.63 11.65 1840.63 10.95 1839.59 10.95 1839.59 10.26 1838.54 10.26 1838.54 9.56 1837.5 9.56 1837.5 8.86 1836.46 8.86 1836.46 8.16 1835.41 8.16 1835.41 7.47 1834.37 7.47 1834.37 6.77 1833.33 6.77 1833.33 6.07 1832.29 6.07 1832.29 5.37 1731.03 5.37 1557.92 5.37 1456.66 5.37 1456.66 178.47 1457.71 178.47 1457.71 179.17 1458.75 179.17 1458.75 179.87 1459.79 179.87 1459.79 180.57 1460.84 180.57 1460.84 181.26 1461.88 181.26 1461.88 181.96 1462.92 181.96 1462.92 182.66 1463.97 182.66 1463.97 183.36 1465.01 183.36 1465.01 184.05 1466.05 184.05 1466.05 184.75 1467.1 184.75 1467.1 185.45 1468.14 185.45 1468.14 186.15 1469.18 186.15 1469.18 186.84 1470.23 186.84 1470.23 187.54 1471.27 187.54 1471.27 188.24 1472.31 188.24 1472.31 188.94 1473.36 188.94 1473.36 189.63 1474.4 189.63 1474.4 190.33 1475.44 190.33 1475.44 191.03 1476.48 191.03 1476.48 191.72 1477.53 191.72 1477.53 192.42 1478.57 192.42 1478.57 193.12 1479.62 193.12 1479.62 193.82 1480.66 193.82 1480.66 194.51 1481.7 194.51 1481.7 195.21 1482.74 195.21 1482.74 195.91 1483.79 195.91 1483.79 196.61 1484.83 196.61 1484.83 197.31 1485.87 197.31 1485.87 198 1486.92 198 1486.92 198.7 1487.96 198.7 1487.96 199.4 1489 199.4 1489 200.09 1490.05 200.09 1490.05 200.79 1491.09 200.79 1491.09 201.49 1492.13 201.49 1492.13 202.19 1493.17 202.19 1493.17 202.88 1494.22 202.88 1494.22 203.58 1495.26 203.58 1495.26 204.28 1496.31 204.28 1496.31 204.98 1497.35 204.98 1497.35 205.67 1498.39 205.67 1498.39 206.37 1499.43 206.37 1499.43 207.07 1500.48 207.07 1500.48 207.77 1501.52 207.77 1501.52 208.46 1502.56 208.46 1502.56 209.16 1503.61 209.16 1503.61 209.86 1504.65 209.86 1504.65 210.56 1505.69 210.56 1505.69 211.25 1506.74 211.25 1506.74 211.95 1507.78 211.95 1507.78 212.65 1508.82 212.65 1508.82 213.34 1509.87 213.34 1509.87 214.04 1510.91 214.04 1510.91 214.74 1511.95 214.74 1511.95 215.44 1512.99 215.44 1512.99 216.13 1514.04 216.13 1514.04 216.83 1515.08 216.83 1515.08 217.53 1516.13 217.53 1516.13 218.23 1517.17 218.23 1517.17 218.92 1518.21 218.92 1518.21 219.62 1519.25 219.62 1519.25 220.32 1520.3 220.32 1520.3 221.02 1521.34 221.02 1521.34 221.71 1522.38 221.71 1522.38 222.41 1523.43 222.41 1523.43 223.11 1524.47 223.11 1524.47 223.81 1525.51 223.81 1525.51 224.5 1526.56 224.5 1526.56 225.2 1527.6 225.2 1527.6 225.9 1528.64 225.9 1528.64 226.6 1529.69 226.6 1529.69 227.29 1530.73 227.29 1530.73 227.99 1531.77 227.99 1531.77 228.69 1532.82 228.69 1532.82 229.38 1533.86 229.38 1533.86 230.08 1534.9 230.08 1534.9 230.78 1535.94 230.78 1535.94 231.48 1536.99 231.48 1536.99 232.18 1538.03 232.18 1538.03 232.87 1539.07 232.87 1539.07 233.57 1540.12 233.57 1540.12 234.27 1541.16 234.27 1541.16 234.97 1542.2 234.97 1542.2 235.66 1543.25 235.66 1543.25 236.36 1544.29 236.36 1544.29 237.06 1545.33 237.06 1545.33 237.75 1546.38 237.75 1546.38 238.45 1547.42 238.45 1547.42 239.15 1548.46 239.15 1548.46 239.85 1549.51 239.85 1549.51 240.54 1550.55 240.54 1550.55 241.24 1551.59 241.24 1551.59 241.94 1552.63 241.94 1552.63 242.64 1553.68 242.64 1553.68 243.33 1554.72 243.33 1554.72 244.03 1555.77 244.03 1555.77 244.73 1556.81 244.73 1556.81 245.43 1557.85 245.43 1557.85 246.12 1557.92 246.12 1557.92 524.68 1558.97 524.68 1558.97 525.37 1560.01 525.37 1560.01 526.07 1561.05 526.07 1561.05 526.77 1562.1 526.77 1562.1 527.47 1563.14 527.47 1563.14 528.16 1564.18 528.16 1564.18 528.86 1565.23 528.86 1565.23 529.56 1566.27 529.56 1566.27 530.25 1567.31 530.25 1567.31 530.95 1568.36 530.95 1568.36 531.65 1569.4 531.65 1569.4 532.35 1570.44 532.35 1570.44 533.04 1571.49 533.04 1571.49 533.74 1572.53 533.74 1572.53 534.44 1573.57 534.44 1573.57 535.14 1574.62 535.14 1574.62 535.83 1575.66 535.83 1575.66 536.53 1576.7 536.53 1576.7 537.23 1577.74 537.23 1577.74 537.93 1578.79 537.93 1578.79 538.62 1579.83 538.62 1579.83 539.32 1580.87 539.32 1580.87 540.02 1581.92 540.02 1581.92 540.72 1582.96 540.72 1582.96 541.41 1584 541.41 1584 542.11 1585.05 542.11 1585.05 542.81 1586.09 542.81 1586.09 543.51 1587.13 543.51 1587.13 544.2 1588.18 544.2 1588.18 544.9 1589.22 544.9 1589.22 545.6 1590.26 545.6 1590.26 546.29 1591.31 546.29 1591.31 546.99 1592.35 546.99 1592.35 547.69 1593.39 547.69 1593.39 548.39 1594.43 548.39 1594.43 549.09 1595.48 549.09 1595.48 549.78 1596.52 549.78 1596.52 550.48 1597.57 550.48 1597.57 551.18 1598.61 551.18 1598.61 551.88 1599.65 551.88 1599.65 552.57 1600.69 552.57 1600.69 553.27 1601.74 553.27 1601.74 553.97 1602.78 553.97 1602.78 554.66 1603.82 554.66 1603.82 555.36 1604.87 555.36 1604.87 556.06 1605.91 556.06 1605.91 556.76 1606.95 556.76 1606.95 557.45 1608 557.45 1608 558.15 1609.04 558.15 1609.04 558.85 1610.08 558.85 1610.08 559.55 1611.13 559.55 1611.13 560.24 1612.17 560.24 1612.17 560.94 1613.21 560.94 1613.21 561.64 1614.26 561.64 1614.26 562.34 1615.3 562.34 1615.3 563.03 1616.34 563.03 1616.34 563.73 1617.38 563.73 1617.38 564.43 1618.43 564.43 1618.43 565.13 1619.47 565.13 1619.47 565.82 1620.51 565.82 1620.51 566.52 1621.56 566.52 1621.56 567.22 1622.6 567.22 1622.6 567.91 1623.64 567.91 1623.64 568.61 1624.69 568.61 1624.69 569.31 1625.73 569.31 1625.73 570.01 1626.77 570.01 1626.77 570.7 1627.82 570.7 1627.82 571.4 1628.86 571.4 1628.86 572.1 1629.9 572.1 1629.9 572.8 1630.95 572.8 1630.95 573.49 1631.99 573.49 1631.99 574.19 1633.03 574.19 1633.03 574.89 1634.08 574.89 1634.08 575.59 1635.12 575.59 1635.12 576.28 1636.16 576.28 1636.16 576.98 1637.2 576.98 1637.2 577.68 1638.25 577.68 1638.25 578.38 1639.29 578.38 1639.29 579.07 1640.33 579.07 1640.33 579.77 1641.38 579.77 1641.38 580.47 1642.42 580.47 1642.42 581.16 1643.46 581.16 1643.46 581.86 1644.51 581.86 1644.51 582.56 1645.55 582.56 1645.55 583.26 1646.59 583.26 1646.59 583.96 1647.64 583.96 1647.64 584.65 1648.68 584.65 1648.68 585.35 1649.72 585.35 1649.72 586.05 1650.77 586.05 1650.77 586.75 1651.81 586.75 1651.81 587.44 1652.85 587.44 1652.85 588.14 1653.89 588.14 1653.89 588.84 1654.94 588.84 1654.94 589.53 1655.98 589.53 1655.98 590.23 1657.03 590.23 1657.03 590.93 1658.07 590.93 1658.07 591.63 1659.11 591.63 1659.11 592.32 1660.15 592.32 1660.15 593.02 1661.2 593.02 1661.2 593.72 1662.24 593.72 1662.24 594.42 1663.28 594.42 1663.28 595.11 1836.38 595.11 1836.38 248.91 1937.64 248.91 1937.64 75.81 1936.6 75.81" style="fill: url(#b8cd721f-76d2-4787-91a6-b2ba702716a1)"/>
            <path d="M1841.76,600.49H1657.91v-.7h-1v-.7h-1v-.69h-1v-.7h-1V597h-1v-.7h-1v-.69h-1v-.7h-1v-.7h-1v-.7h-1v-.69h-1v-.7h-1v-.7h-1v-.7h-1V590h-1v-.7h-1v-.7h-1v-.7h-1v-.69h-1v-.7h-1v-.7h-1v-.7h-1v-.69h-1v-.7h-1.05v-.7h-1v-.7h-1v-.69h-1V581h-1v-.7h-1v-.69h-1.05v-.7h-1v-.7h-1v-.7h-1v-.69h-1v-.7h-1v-.7h-1v-.7h-1V574h-1v-.7h-1v-.7h-1v-.7h-1v-.69h-1v-.7h-1v-.7h-1v-.7h-1v-.69h-1v-.7h-1V567h-1v-.7h-1v-.69h-1v-.7h-1v-.7h-1v-.7h-1.05v-.69h-1v-.7h-1v-.7h-1v-.69h-1V560h-1v-.7h-1.05v-.7h-1V558h-1v-.7h-1v-.7h-1v-.7h-1v-.69h-1.05v-.7h-1v-.7h-1v-.7h-1v-.69h-1v-.7h-1V551h-1v-.7h-1v-.69h-1v-.7h-1v-.7h-1v-.7h-1v-.69h-1v-.7h-1v-.7h-1v-.7h-1V544h-1v-.7h-1v-.7h-1v-.69h-1v-.7h-1v-.7h-1v-.7h-1v-.69h-1.05v-.7h-1v-.7h-1V537h-1v-.69h-1v-.7h-1v-.7h-1.05v-.7h-1v-.69h-1v-.7h-1v-.7h-1v-.7h-1v-.69h-1.05v-.7h-1V250.8h-1.11v-.7h-1v-.7h-1v-.69h-1V248h-1v-.7h-1v-.7h-1v-.69h-1v-.7h-1v-.7h-1v-.69h-1v-.7h-1v-.7h-1v-.7h-1.05V241h-1v-.7h-1v-.7h-1v-.7h-1v-.69h-1v-.7h-1.05v-.7h-1v-.7h-1v-.69h-1v-.7h-1v-.7h-1v-.7h-1v-.69h-1V232h-1v-.7h-1v-.7h-1v-.69h-1v-.7h-1v-.7h-1v-.7h-1v-.69h-1v-.7h-1v-.7h-1V225h-1v-.69h-1v-.7h-1v-.7h-1v-.69h-1v-.7h-1v-.7h-1v-.7h-1v-.69h-1v-.7h-1V218h-1v-.7h-1.05v-.69h-1v-.7h-1v-.7h-1v-.7h-1v-.69h-1v-.7h-1.05v-.7h-1v-.7h-1v-.69h-1v-.7h-1v-.7h-1V209h-1v-.69h-1v-.7h-1v-.7h-1v-.69h-1v-.7h-1v-.7h-1v-.7h-1v-.69h-1v-.7h-1V202h-1v-.7h-1v-.69h-1v-.7h-1v-.7h-1v-.7h-1v-.69h-1v-.7h-1v-.7h-1v-.7h-1V195h-1v-.7h-1v-.7h-1v-.7h-1.05v-.69h-1v-.7h-1v-.7h-1v-.7h-1v-.69h-1v-.7h-1.05V188h-1v-.69h-1v-.7h-1v-.7h-1v-.7h-1v-.69h-1.05v-.7h-1V0h386.37V.7h1v.7h1v.69h1v.7h1v.7h1v.69h1.05v.7h1v.7h1v.7h1V7h1v.7h1v.7h1v.7h1v.69h1v.7h1v.7h1v.7h1v.69h1v.7h1V14h1v.7h1v.69h1V16h1v.7h1v.7h1v.69h1v.7h1v.7h1v.69h1v.7h1v.7h1v.7h1V23h1v.69h1.05v.7h1v.7h1v.69h1v.7h1v.7h1v.7h1.05v.69h1v.7h1V30h1v.7h1v.69h1v.7h1v.7h1v.7h1v.69h1v.7h1v.7h1v.7h1V37h1v.7h1v.7h1v.7h1v.69h1v.7h1v.7h1v.69h1v.7h1v.7h1v.7h1.05v.69h1v.7h1V46h1v.7h1v.69h1v.7h1.05v.7h1v.7h1v.69h1v.7h1v.7h1v.7h1V53h1v.7h1v.7h1v.7h1v.69h1v.7h1v.7h1v.7h1v.69h1v.7h1V60h1v.69h1v.7h1v.7h1v.7h1v.69h1v.7h1v.7h1v.7h1v.69h1V67h1v.7h1v.7h1.05V69h1v.7h1v.7h1V254.29H1841.76Zm-173.1-10.75H1831V243.54h101.26V81.19h-1v-.7h-1v-.7h-1v-.7h-1V78.4h-1v-.7h-1V77h-1v-.7h-1v-.69h-1v-.7h-1v-.7h-1v-.7h-1v-.69h-1v-.7h-1v-.7h-1.05v-.7h-1V70h-1v-.7h-1v-.7h-1v-.69h-1v-.7h-1.05v-.7h-1v-.7h-1v-.69h-1v-.7h-1v-.7h-1v-.7h-1.05v-.69h-1v-.7h-1V61h-1v-.7h-1v-.69h-1v-.7h-1v-.7h-1v-.7h-1v-.69h-1v-.7h-1v-.7h-1v-.7h-1V54h-1v-.7h-1v-.7h-1v-.7h-1V51.2h-1v-.7h-1v-.7h-1v-.7h-1v-.69h-1v-.7h-1V47h-1v-.69h-1v-.7h-1v-.7h-1v-.7h-1v-.69h-1v-.7h-1.05v-.7h-1v-.7h-1v-.69h-1V40h-1v-.7h-1v-.7h-1.05V38h-1v-.7h-1v-.7h-1v-.7h-1v-.69h-1v-.7h-1v-.7h-1v-.7h-1v-.69h-1v-.7h-1V31h-1v-.69h-1v-.7h-1v-.7h-1v-.7h-1v-.69h-1v-.7h-1v-.7h-1v-.7h-1V24.7h-1V24h-1v-.7h-1v-.7h-1.05v-.69h-1v-.7h-1v-.7h-1v-.7h-1v-.69h-1v-.7h-1.05v-.7h-1V17h-1v-.69h-1v-.7h-1v-.7h-1v-.7h-1.05v-.69h-1v-.7h-1v-.7h-1v-.69h-1v-.7H1462V173.1h1v.7h1.05v.7h1v.69h1v.7h1v.7h1v.7h1V178h1v.7h1v.7h1v.7h1v.69h1v.7h1v.7h1v.69h1v.7h1v.7h1v.7h1v.69h1v.7h1v.7h1v.7h1v.69h1v.7h1v.7h1v.7h1v.69h1v.7h1v.7h1v.7h1V194h1.05v.7h1v.7h1v.7h1v.69h1v.7h1v.7h1.05v.69h1v.7h1v.7h1v.7h1v.69h1v.7h1v.7h1v.7h1v.69h1v.7h1v.7h1v.7h1v.69h1v.7h1v.7h1v.7h1v.69h1v.7h1v.7h1v.7h1v.69h1v.7h1v.7h1.05v.7h1v.69h1v.7h1v.7h1v.7h1v.69h1.05v.7h1v.7h1v.69h1v.7h1v.7h1v.7h1.05v.69h1v.7h1v.7h1v.7h1v.69h1v.7h1v.7h1v.7h1v.69h1v.7h1v.7h1v.7h1v.69h1v.7h1v.7h1v.7h1v.69h1v.7h1v.7h1v.69h1v.7h1v.7h1v.7h1v.69h1v.7h1v.7l.08,5.37V519.3h1v.7h1.05v.7h1v.69h1v.7h1v.7h1v.7h1v.69h1v.7h1v.7h1v.7h1V527h1v.7h1v.7h1v.7h1v.69h1v.7h1v.7h1v.7h1v.69h1v.7h1v.7h1v.7h1v.69h1v.7h1.05v.7h1v.69h1v.7h1v.7h1v.7h1v.69h1.05v.7h1v.7h1v.7h1V543h1v.7h1v.7h1.05v.7h1v.69h1v.7h1v.7h1v.7h1v.69h1v.7h1v.7h1v.7h1v.69h1v.7h1v.7h1v.7h1v.69h1v.7h1v.7h1v.69h1v.7h1v.7h1v.7h1v.69h1v.7h1v.7h1.05v.7h1v.69h1v.7h1v.7h1v.7h1v.69h1.05v.7h1v.7h1v.7h1v.69h1v.7h1v.7h1.05v.69h1v.7h1v.7h1v.7h1v.69h1v.7h1v.7h1v.7h1v.7h1v.69h1v.7h1v.7h1v.69h1v.7h1v.7h1v.7h1v.69h1v.7h1v.7h1v.7h1v.69h1v.7h1v.7h1.05v.7h1v.69h1v.7h1v.7h1v.69h1v.7h1.05Z" style="fill: #2636b2"/>
          </g>
          <g>
            <polygon points="1557.92 5.37 1456.67 5.37 1456.67 178.47 1557.92 178.47 1557.92 524.68 1731.03 524.68 1731.03 178.47 1832.29 178.47 1832.29 5.37 1731.03 5.37 1557.92 5.37" style="fill: #f2f9f9"/>
            <path d="M1736.4,530.05H1552.55V183.85H1451.29V0h386.37V183.85H1736.4ZM1563.3,519.3h162.35V173.1h101.26V10.75H1462V173.1H1563.3Z" style="fill: #2636b2"/>
          </g>
        </g>
      </g>
    </g>
  </g>
</svg>
