<svg xmlns="http://www.w3.org/2000/svg" viewBox="0 0 45.19 32.81">
    <defs>
        <style>
            .f0558d7b-c6c1-460d-b195-bb6fc553c2a5{isolation:isolate;}.ac0f2692-d316-4a9f-b910-3af8ac318945,.f98414b0-31ce-426c-b053-6a32fe052139{fill:#ff9d00;}.a4a34ec0-960c-4962-9deb-e0edd64b9b59{fill:#6d5e7c;}.e78715a8-ea29-4c5c-b3da-2f33298aadeb{fill:#4f3e60;}.b0105f4c-2797-4105-8e8c-6162359ec10e{fill:#312442;}.af4f9379-26ff-470b-a799-8be1ce424d7c{fill:#60546a;}.b60236b5-7ff4-4bcc-983f-882465e8e1ea{fill:#120e16;}.a0d2d13b-ed09-4337-8c94-8d2f4fcd57c8{fill:#fffcf8;opacity:0.42;mix-blend-mode:screen;}.ae060236-fb9a-499f-ae6a-c4b8166fe112{fill:#dd311d;}.b19d8bf2-cdc8-459a-974d-d33da8b7a804{fill:#050000;}.b9126f22-d722-4f0b-a6e9-e04cbb515345{fill:#bc0d00;mix-blend-mode:multiply;}.e00aaef8-8bcc-4541-bd9b-57d4552edcb0{fill:#ffbf4d;}.ac0f2692-d316-4a9f-b910-3af8ac318945{opacity:0.29;}.ef404d29-a8c7-4936-b130-401459f40e5d{fill:#e27b00;}.b6963c17-7d45-43d6-bf72-3d117d4aef82{fill:#ffde76;}
        </style>
    </defs>
    <title>Asset 2</title>
    <g class="f0558d7b-c6c1-460d-b195-bb6fc553c2a5">
        <g id="b032642b-fb0c-4086-ba50-1e395f48000a">
            <g id="e99393ec-baab-4d22-b138-42583d47a846">
                <path class="f98414b0-31ce-426c-b053-6a32fe052139"
                      d="M43.86,16.55s-1.74-2.21-1.74-4.18A9.4,9.4,0,0,1,43.86,7.3,17.49,17.49,0,0,0,27.6,2C17.42,4.05.56,7,.56,7a18.34,18.34,0,0,1,1.18,4.31,6.77,6.77,0,0,1-.54,4.29l16,.44s6-5.94,14.57-5S41.62,18.14,43.86,16.55Z"/>
                <path class="f98414b0-31ce-426c-b053-6a32fe052139"
                      d="M1.85,12.61a3.24,3.24,0,0,0-1.84,3c-.14,2.34,1.29,3.91,1.53,3.84s14.4-.42,15.24-.52,2.56.83,4.8,1.71,2.19.77,1.53,1.46a81,81,0,0,1-7.76,5.77,5.67,5.67,0,0,1-1.62.59,2.61,2.61,0,0,0-1.67-2.53c-1.8-.7-4.76,1.26-3.37,3.75s3.27,3,6.81,1.41,8.92-5.62,11-6.85a10,10,0,0,1,3.24-1.36s.37,8.31.52,9.13,1.92,1,2.71.72a1.94,1.94,0,0,0,1.09-.92s-.91-4.22-.6-5,1.76-1.53,1.75-1.85-1.88-.79-2.24-1.37a1,1,0,0,1,0-1.1,41.81,41.81,0,0,0,5.81-1.57c2.45-.93,4.36-1.23,4.54-1.65S43,17.58,43,17.58A26.55,26.55,0,0,0,39,19c-2.14.95-6,3.28-11.55,1.88a24.19,24.19,0,0,1-8.87-4.24s6.3-5.37,13.25-4.58,7.88,1.55,8.78,3,3.69,2.19,3.69,2.19.38-.69-.76-1.11-2.3-3.06-2.93-3.9S35.71,9.19,29,10,19,13.44,17.62,13.82,2.76,12.74,1.85,12.61Z"/>
                <path class="a4a34ec0-960c-4962-9deb-e0edd64b9b59"
                      d="M2.06,13.16S16,15.28,18,14.29,26.31,9.9,32.29,10.4c7,.57,8.07,2.36,9.4,4.58.53.89,1.72,1.21,2.17,1.57,1,.79-.37,1.35-.37,1.35a4.91,4.91,0,0,1-3.2-2c-1.19-1.61-2.12-1.75-4.76-2.67-5.6-1.95-16,2.77-15.9,3.29s6.55,3.71,12,3.71,7.1-2.13,9-2.44,2.79.75,2.27,1-3.19,1-4.88,1.81-5.27,2-10.73,1-6.37-2-9.76-3.45c-1.55-.66-16,.51-16,.51S-1,15.6,2.06,13.16Z"/>
                <path class="e78715a8-ea29-4c5c-b3da-2f33298aadeb"
                      d="M1.11,14.49A13.94,13.94,0,0,1,2.86,16c.42.52,2.48-2.08,2.48-2.08l2.51.26L6.56,16.79l2.23-2.45,2.94.27-.64,2,1.56-1.87,2.7,0-.34,2,1.22-1.95.81,0s1.11,1,1.17,1.71a2.92,2.92,0,0,1-.4,1.48l-.44.26S11.09,17.9,9.94,18s-7.87,1.08-8.32.76S.42,15.54,1.11,14.49Z"/>
                <path class="b0105f4c-2797-4105-8e8c-6162359ec10e"
                      d="M.83,15.87S2.74,17.51,4,17.62a2.39,2.39,0,0,0,2-1.26l1-1.8.79-.39L6.24,17.63s2.68,0,3.28,0,1.17-2.08,1.17-2.08l1-.94-.93,3a16.27,16.27,0,0,0,3.1-.18,7.71,7.71,0,0,0,.57-1.71l.88-.94-.47,2.75a6.06,6.06,0,0,0,2-.14,3.08,3.08,0,0,0,.72-1.21l-.44-1.08s1.07.92,1,1.08S18,18,18,18l-.59.25s-9.32-.09-12.45.33-3.85-.25-3.85-.25S.46,16.19.83,15.87Z"/>
                <path class="e78715a8-ea29-4c5c-b3da-2f33298aadeb"
                      d="M32.29,21.71c0-.12-.18-.71.12-.93a25.37,25.37,0,0,1,3.45-.54l.58.33v-.33a8.21,8.21,0,0,0,1.84-.74,6.88,6.88,0,0,1,1.88-.69l.53.3.38-.16s.42-.78.89-.94a1.64,1.64,0,0,1,1.39.23c.16.19.06.6.06.6s-2.25.79-2.95,1.07-5.12,1.5-6.44,1.8S32.29,21.71,32.29,21.71Z"/>
                <path class="af4f9379-26ff-470b-a799-8be1ce424d7c"
                      d="M30.61,21.85a11.61,11.61,0,0,0-4.2,1.87c-3.18,2-7.39,5.25-10.58,6.76-6.14,2.92-8-1.88-6.58-3.28,2.28-2.24,4.63,0,3.83,1.78-.32.74-1.33.23-.67.5s2.29-.54,8.14-4.83c7.1-5.21,7.26-3.51,7.26-3.51Z"/>
                <path class="e78715a8-ea29-4c5c-b3da-2f33298aadeb"
                      d="M10,26.9c.08,0-.2,2.54.54,3.13s3.29-.09,3.72-.16,1.1.56,1.1.56-.16-1,0-1.09,4.39-3,4.83-3.13,1,.51,1,.51h.38l-.08-.36s-.56-1.12-.39-1.16,3.39-2.13,3.74-2.25.94.77.94.77l.24-.45s-.59-.95-.42-1.09a4.47,4.47,0,0,1,1-.36l4.13.37A24,24,0,0,0,22.4,26.7c-4.7,3.66-9,5.74-11.55,4.74S8,27.93,10,26.9Z"/>
                <path class="b0105f4c-2797-4105-8e8c-6162359ec10e"
                      d="M8.52,29.26s1.66,1.52,3,1.45A7.81,7.81,0,0,0,14.07,30l.94.31.18-.08,1-1.21L18,27.67l.43.57v-.89l2-.88,1,.32v-.52l.5-1.38,3.26-1.75.8.45.18-1.06,1.58-.87,2.25.16.53.1a25,25,0,0,0-5.63,2.74C22.35,26.41,17.82,30.19,14.7,31S9.48,31.8,8.52,29.26Z"/>
                <path class="e78715a8-ea29-4c5c-b3da-2f33298aadeb"
                      d="M31,21.52s-6.22-1.47-7.93-2.38S21.27,18,21.27,18A4.43,4.43,0,0,0,19.5,17c-.69,0-1.88,1.21-1.88,1.21a23.82,23.82,0,0,0,7.64,2.86C29.87,22,30.92,21.69,31,21.52Z"/>
                <path class="af4f9379-26ff-470b-a799-8be1ce424d7c"
                      d="M25.4,13.58a4.9,4.9,0,0,0,2.21,5.28,6.32,6.32,0,0,0,7.93-.74c1.31-1.37,1.77-4.22.62-5.34-.71-.68-2.64-.46-4.6-.43C28.94,12.38,26.18,12.48,25.4,13.58Z"/>
                <path class="b0105f4c-2797-4105-8e8c-6162359ec10e"
                      d="M32.5,18.18s-.81,1.54-.81,1.54H33l.26-1.52.79-.36.9.57-.37-1.25.44-.59,1,1.13.51-1.15-1.65-.45Z"/>
                <path class="b0105f4c-2797-4105-8e8c-6162359ec10e"
                      d="M28.93,19.5a4,4,0,0,0,2.46-.78c1.31-.89,3.57-3.67,4.23-3.93a3.42,3.42,0,0,1,1.27-.23l.11-.78a14.79,14.79,0,0,0-9.73-.3c-1.74.59-2,1.08-2,1.08A5.43,5.43,0,0,0,28.93,19.5Z"/>
                <path class="af4f9379-26ff-470b-a799-8be1ce424d7c"
                      d="M30.67,21.91s-.42,9,0,9.85,2.32.76,2.59,0-.46-5.22,0-5.51,1.67-1.06,1.39-1.42-2-.84-2-1.51a16.42,16.42,0,0,1,.21-1.78Z"/>
                <path class="e78715a8-ea29-4c5c-b3da-2f33298aadeb"
                      d="M32.29,22a6,6,0,0,0,0,2.19c.25.58,2.11,1.2,2.11,1.2s-.68.81-1.14.84a1,1,0,0,0-.67.27s-1.27.28-1.2.28,1.51.2,1.5.45a9,9,0,0,0,0,1.48c.09.52-.12,1.24,0,1.59s.75,1.51-.6,1.89a1.14,1.14,0,0,1-1.62-.94,13.12,13.12,0,0,1-.06-2.06c0-.79,0-6.85.2-7a.68.68,0,0,1,.36-.16Z"/>
                <path class="b0105f4c-2797-4105-8e8c-6162359ec10e"
                      d="M31.86,22s-.05,4,0,4.05a6.13,6.13,0,0,1,.27.71l-.81-.24.48,4L32.72,32s-2,.49-2.09-1,.33-5.19.33-5.19l-.15-3.76Z"/>
                <path class="b60236b5-7ff4-4bcc-983f-882465e8e1ea"
                      d="M17.66,14.39s1.31,2.13,1.71,1.8a14.92,14.92,0,0,1,5.45-2.65,34.26,34.26,0,0,1,7.77-.78,61.54,61.54,0,0,0-6.66,1.09,14.54,14.54,0,0,0-1.62.49,34.9,34.9,0,0,0-4.48,2.1c-.33.18,1.79,1.32,1.79,1.32a9.55,9.55,0,0,0-2.41-.51,11.28,11.28,0,0,0-1.59,1L17,18.11s1.45-.69,1.57-1.47S17,14.5,17,14.5Z"/>
                <path class="af4f9379-26ff-470b-a799-8be1ce424d7c"
                      d="M.56,7s11.63,2.64,17,0S29.2,2.37,34.69,3.62,42,8,44,7s1.13-1.76.24-2.58A25.59,25.59,0,0,0,28.14.11C20.21.94,15.36,4.36,13.5,4.7S.06,3.62.06,3.62Z"/>
                <path class="a0d2d13b-ed09-4337-8c94-8d2f4fcd57c8"
                      d="M20.86,2.16s-.2,1.39,1,1.36,6.48-2.12,13.42-.87,8.88,4,9.14,3.76.9-.68.73-1a17.13,17.13,0,0,0-4.81-2.78,13.5,13.5,0,0,0-2.49-.49s-1.35,1-1.39.49a2.18,2.18,0,0,1,.27-1A16.2,16.2,0,0,0,32.29.55C30,.37,28.79.5,28.65.78S27.87,2,27.6,2,27.23,1,27,1A25.78,25.78,0,0,0,20.86,2.16Z"/>
                <path class="e78715a8-ea29-4c5c-b3da-2f33298aadeb"
                      d="M10.14,5.73a3.54,3.54,0,0,1,1.92,1.78l.59-1.45,1.07,0,1.16,1,1-1.61s3-1.29,3.4-1.14l1.55.61s.7-1.4,1-1.41.92-.57.92-.57l.92.49s.14-.73.36-.64S26,2,26.81,2.15s1,.5,1,.5.29-.77.79-.86,7,.93,7.19,1,.8,1,.8,1a5.59,5.59,0,0,1,1.15-1.07c.32-.09,4.8,2.55,5.51,3.12s1.94-.11,1.94-.11S43.86,7.3,43,7.15,36.1,4,34.25,3.52a20.21,20.21,0,0,0-6.68,0A14.6,14.6,0,0,0,25.26,4c-2.75.87-10.07,3.54-12,4S.83,7,.83,7,.18,6.88.06,5.77a11,11,0,0,1,0-2.15Z"/>
                <path class="b60236b5-7ff4-4bcc-983f-882465e8e1ea"
                      d="M28.14,13.27a14.5,14.5,0,0,1,8.6,0c4.38,1.5,3.49,2.6,4.35,3.37A8.48,8.48,0,0,0,43.73,18l-.8.29a4,4,0,0,0-1.23-.45c-.46,0-1.31-1.8-2.3-2.68S33.08,12.16,28.14,13.27Z"/>
                <path class="b60236b5-7ff4-4bcc-983f-882465e8e1ea"
                      d="M20.86,19.76A25.88,25.88,0,0,0,31.69,21.6a37.38,37.38,0,0,0,9.4-2.1l-3.21,1.26A16.71,16.71,0,0,1,30.67,22,27.06,27.06,0,0,1,20.86,19.76Z"/>
                <path class="b60236b5-7ff4-4bcc-983f-882465e8e1ea"
                      d="M20.18,24.92a4.57,4.57,0,0,1,1.2,1,1.2,1.2,0,0,1,0,1.18l-.21.13s.18-1-.31-1.31-1.12-.7-1.12-.7Z"/>
                <path class="b60236b5-7ff4-4bcc-983f-882465e8e1ea"
                      d="M24.85,21.78a4.41,4.41,0,0,1,1.15,1,1.2,1.2,0,0,1,0,1.18l-.36.27s.33-1.1-.16-1.45-1.12-.7-1.12-.7Z"/>
                <path class="b60236b5-7ff4-4bcc-983f-882465e8e1ea"
                      d="M14.61,28.73a3.25,3.25,0,0,1,.73.84,1.74,1.74,0,0,1,.13,1.07l-.42.18s.3-1,0-1.25-.8-.63-.8-.63Z"/>
                <path class="b60236b5-7ff4-4bcc-983f-882465e8e1ea"
                      d="M12.66,29.65s-2.12.62-2.13-1.25c0-1.3,1.5-.71,1.5-.71s-.67-.31-.93.3.53,2.08,2.86,1a48,48,0,0,0,6.22-4S15.84,29.25,12.66,29.65Z"/>
                <path class="b60236b5-7ff4-4bcc-983f-882465e8e1ea"
                      d="M2.12,18.81s7.68-.69,10.64-.57,4.86,0,4.86,0L18,18a68.57,68.57,0,0,0-7-.43c-3.7,0-7.83.94-8.89.62S.79,15.64,1,14.86a4.85,4.85,0,0,1,1.09-1.7A3.56,3.56,0,0,0,.3,16.64C.71,18.89,2.12,18.81,2.12,18.81Z"/>
                <path class="b60236b5-7ff4-4bcc-983f-882465e8e1ea"
                      d="M.56,7s9,2.71,14.94,1S26.29,2.6,32.94,3.62,42,8,43.38,7.92s1.81-2.26,1.81-2.26-1.08,1.53-2.27.93A23.42,23.42,0,0,0,30.48,3c-6.66.14-13.72,3.89-15.6,4.4S.56,7,.56,7Z"/>
                <polygon class="b60236b5-7ff4-4bcc-983f-882465e8e1ea"
                         points="11.89 4.7 11.46 8.12 12.23 7.92 12.65 4.75 11.89 4.7"/>
                <polygon class="b60236b5-7ff4-4bcc-983f-882465e8e1ea"
                         points="20.44 1.96 20.44 5.77 21.13 5.49 20.91 1.79 20.44 1.96"/>
                <polygon class="b60236b5-7ff4-4bcc-983f-882465e8e1ea"
                         points="27.48 0.18 27.66 3.52 28.14 0.11 27.48 0.18"/>
                <polygon class="b60236b5-7ff4-4bcc-983f-882465e8e1ea"
                         points="36.89 0.99 36.01 4.32 36.45 4.12 37.53 1.18 36.89 0.99"/>
                <path class="b60236b5-7ff4-4bcc-983f-882465e8e1ea"
                      d="M25.6,13.77s-.52,4.1,3.2,5.53a5.44,5.44,0,0,0,1.11.42A6.15,6.15,0,0,0,36,17.29a11.41,11.41,0,0,0,.76-3.6l.54.21s0,3.31-1.7,4.67-2.23,1.57-5.34,1.34a6.07,6.07,0,0,1-5.08-3,15.29,15.29,0,0,1-.58-3Z"/>
                <path class="ae060236-fb9a-499f-ae6a-c4b8166fe112"
                      d="M26.66,13.69s-1.05,4,3.12,4.55S35,17,35.32,16a11.12,11.12,0,0,0,.47-2.38S32,11.7,26.66,13.69Z"/>
                <path class="b19d8bf2-cdc8-459a-974d-d33da8b7a804"
                      d="M26.67,13.69a3.85,3.85,0,0,0,.87,3.52,3.66,3.66,0,0,0,1.65.84,9.86,9.86,0,0,0,1.89.22A7.1,7.1,0,0,0,33,18.08a3.27,3.27,0,0,0,1.61-.95,3.58,3.58,0,0,0,.82-1.68,12,12,0,0,0,.31-1.87l0,.08A9.19,9.19,0,0,0,33.54,13a13.45,13.45,0,0,0-4.62.08A19,19,0,0,0,26.67,13.69Zm0,0A13.57,13.57,0,0,1,28.9,13a13.91,13.91,0,0,1,2.32-.31,13.2,13.2,0,0,1,2.35.16,9.58,9.58,0,0,1,2.26.66l.05,0v.06a11.15,11.15,0,0,1-.35,1.9,3.66,3.66,0,0,1-.88,1.7,3.5,3.5,0,0,1-1.67.95,7.12,7.12,0,0,1-1.9.24,10.24,10.24,0,0,1-1.92-.18,3.38,3.38,0,0,1-1.72-.88A3.8,3.8,0,0,1,26.65,13.68Z"/>
                <path class="b9126f22-d722-4f0b-a6e9-e04cbb515345"
                      d="M28.25,17.42a3.33,3.33,0,0,1,1-2.63c1.21-1.43,6.58-1.21,6.58-1.21a12.86,12.86,0,0,0-5.61-.65c-2.9.39-2.91.55-2.91.55s-.77,1.81-.24,2.71A3.19,3.19,0,0,0,28.25,17.42Z"/>
                <path class="a0d2d13b-ed09-4337-8c94-8d2f4fcd57c8"
                      d="M24.91,11.5a34.37,34.37,0,0,0,5.23-.1c4.47-.38,7.39.81,9,1.94s2.11,2.42,2.9,3a2.37,2.37,0,0,0,1.8.44,5.41,5.41,0,0,1-2.36-1.58c-.6-.95-.72-2.77-5.21-4A23.4,23.4,0,0,0,24.91,11.5Z"/>
                <path class="e78715a8-ea29-4c5c-b3da-2f33298aadeb"
                      d="M23.48,12.5a1,1,0,0,0,.95,1c1,.12,6.48-1.29,9.77-.61a23.83,23.83,0,0,1,4.88,1.68,1.26,1.26,0,0,0,.57-.43s-3.21-2-4.2-2-2.17,0-2.17,0l-.88-.58-2.31.09-.31.59-1.37-.67Z"/>
                <path class="e78715a8-ea29-4c5c-b3da-2f33298aadeb"
                      d="M40.37,13.69a6.52,6.52,0,0,1,.72,1.39c.11.48.53,1.51,1.14,1.73a2.69,2.69,0,0,0,1.63-.26s.74.45.37,1a1.16,1.16,0,0,1-1.16.4,3.12,3.12,0,0,1-2.1-1.3,8.9,8.9,0,0,0-1.66-2Z"/>
                <path class="b60236b5-7ff4-4bcc-983f-882465e8e1ea"
                      d="M23.49,14.17s0-.74-.29-1a.88.88,0,0,1-.32-.66l1.08,1c.26.23,2-.15,2-.15A12.78,12.78,0,0,1,23.49,14.17Z"/>
                <path class="b60236b5-7ff4-4bcc-983f-882465e8e1ea"
                      d="M29.36,22s1.49-.17,1.66-.55.16-1.29.3-1.14l.15.15a4.74,4.74,0,0,0,.22,1.19.9.9,0,0,1,.17.44S29.76,22,29.36,22Z"/>
                <path class="b60236b5-7ff4-4bcc-983f-882465e8e1ea"
                      d="M32.72,22s-1.12,0-1.17.35-.06,3.27,0,3.72,1.89.45,1.89.45v.26H31.6c-.21,0,0,2.75-.19,3.26s-.11,1.41.19,1.59a10.75,10.75,0,0,0,1.84.42,2,2,0,0,1-1.69.28c-1-.26-.88-.76-.84-1.21s0-1.27,0-1.81.07-4.28,0-5.12a6.56,6.56,0,0,1,0-2.21C31,21.76,32.72,22,32.72,22Z"/>
                <path class="b60236b5-7ff4-4bcc-983f-882465e8e1ea"
                      d="M39.88,19.91s.51-.81.4-1.1a5.28,5.28,0,0,1-.19-.83.75.75,0,0,0,.21.26,5.44,5.44,0,0,1,.34,1.37Z"/>
                <path class="b60236b5-7ff4-4bcc-983f-882465e8e1ea"
                      d="M39.08,14.53s.81-.49.8-.82,0-1.06.16-1a2.43,2.43,0,0,1,.2.41s.29.94,0,1.15a2.5,2.5,0,0,0-.54.82Z"/>
                <path class="b60236b5-7ff4-4bcc-983f-882465e8e1ea"
                      d="M27.27,13.48a3.63,3.63,0,0,0,0,2.87,5,5,0,0,0,2.51,1.89,2.83,2.83,0,0,1-2.87-1.77c-.92-2-.51-2.19-.92-2a2.52,2.52,0,0,0-.73.44l.11-.95A4.64,4.64,0,0,1,27.27,13.48Z"/>
                <path class="e78715a8-ea29-4c5c-b3da-2f33298aadeb"
                      d="M18.21,14.64s.78,1.14,1.14,1.21a2.59,2.59,0,0,0,.83,0L23.48,14a3.52,3.52,0,0,0-.6-.8,3,3,0,0,0-.67-.38Z"/>
                <path class="b0105f4c-2797-4105-8e8c-6162359ec10e"
                      d="M19.68,16.12a3.22,3.22,0,0,1,.86-.82l1-.61,1.34-1h.37l.24.58S20.52,16.14,19.68,16.12Z"/>
                <path class="b0105f4c-2797-4105-8e8c-6162359ec10e"
                      d="M24.43,13.58a20.27,20.27,0,0,1,2-.71c.55-.14,3.31-.38,3.31-.38l.39-.77,1.6,0-.52.72a22.86,22.86,0,0,1,3.71.28,10.16,10.16,0,0,1,2,.71L39,14.66A17,17,0,0,0,33.43,13a35.07,35.07,0,0,0-7.34.48A4.56,4.56,0,0,1,24.43,13.58Z"/>
                <polygon class="a0d2d13b-ed09-4337-8c94-8d2f4fcd57c8"
                         points="36.52 15.15 36.24 16.72 35.79 16.72 36.16 15.27 36.52 15.15"/>
                <polygon class="a0d2d13b-ed09-4337-8c94-8d2f4fcd57c8"
                         points="35.02 16.84 35.24 18.01 35.79 17.56 35.02 16.84"/>
                <polygon class="a0d2d13b-ed09-4337-8c94-8d2f4fcd57c8"
                         points="33.65 19.23 34.69 18.48 34.34 18.06 33.49 18.81 33.65 19.23"/>
                <path class="a0d2d13b-ed09-4337-8c94-8d2f4fcd57c8"
                      d="M30.3,18.06A5,5,0,0,1,32,14.82a3.43,3.43,0,0,1,3.26-.91,5.7,5.7,0,0,1-1,3.16C32.88,18.51,30.3,18.06,30.3,18.06Z"/>
                <path class="a4a34ec0-960c-4962-9deb-e0edd64b9b59"
                      d="M12.65,5.09a10.54,10.54,0,0,0,2.75-.77C17.12,3.63,20,2.38,20,2.38l-.21,1.68a20.37,20.37,0,0,0-3.1.64c-1,.36-1.13,1.25-2,1.07a11.4,11.4,0,0,0-2,0C12.53,5.67,12.65,5.09,12.65,5.09Z"/>
                <path class="a4a34ec0-960c-4962-9deb-e0edd64b9b59"
                      d="M3.9,4.23s7.5.59,7.56.8a5,5,0,0,1-.35,1.26L9.94,5.48S3.87,4.55,3.9,4.23Z"/>
                <path class="a0d2d13b-ed09-4337-8c94-8d2f4fcd57c8"
                      d="M23.08,18.65s-.15.07.65.58A34.44,34.44,0,0,0,30,20.88a1,1,0,0,1,.68.26l.29.18s.37-.81.16-.83A28.46,28.46,0,0,1,23.08,18.65Z"/>
                <path class="a0d2d13b-ed09-4337-8c94-8d2f4fcd57c8"
                      d="M32,20.78s-.32-.25-.13-.29a33.33,33.33,0,0,0,4.3-.51c.63-.28,3.32-1.68,3.57-1.65s.67.47.55.48-.4,0-.4,0a1.13,1.13,0,0,0-.66,0,8.59,8.59,0,0,0-1.91.83,6,6,0,0,1-1.4.6l-.14.19-.33-.19S32.08,20.68,32,20.78Z"/>
                <path class="a0d2d13b-ed09-4337-8c94-8d2f4fcd57c8"
                      d="M40.5,18.13a4.6,4.6,0,0,1,.14.52c0,.07.17,0,.32-.18a2.26,2.26,0,0,1,.46-.41C41.53,18,40.66,17.94,40.5,18.13Z"/>
                <path class="a0d2d13b-ed09-4337-8c94-8d2f4fcd57c8"
                      d="M43.45,17s-.64.14-.43.24a4.32,4.32,0,0,0,.69.2l0-.36Z"/>
                <path class="e00aaef8-8bcc-4541-bd9b-57d4552edcb0"
                      d="M1.46,7.93a31.2,31.2,0,0,1,1,3.35V12.5s11.08,1.83,13.31,1.19a2.44,2.44,0,0,1,1.44,0s1.26-6.29,1.17-6.34-2.61.9-3.42,1.15A4.33,4.33,0,0,0,13.76,9l-.36,1.33-.31-1.46s-2.78.16-3.84.16S1.7,8,1.46,7.93Z"/>
                <path class="e00aaef8-8bcc-4541-bd9b-57d4552edcb0"
                      d="M18,13.59a8.65,8.65,0,0,1,.47-2.08,5.31,5.31,0,0,0,.34-1.7l-.3-.57L19.22,7s1.82-.7,2.63-.92a17,17,0,0,0,2.51-1.13l.9.87.53-1.1,2.83-.47s-.22,3-.17,3.83a11.46,11.46,0,0,1-.15,2,26.83,26.83,0,0,0-3.39.57C23,11.07,18.22,13.55,18,13.59Z"/>
                <path class="e00aaef8-8bcc-4541-bd9b-57d4552edcb0"
                      d="M29.36,4.09a15.67,15.67,0,0,1,0,2.2c-.1.5.1,2.21,0,2.43a8.83,8.83,0,0,0-.27,1.09,10.33,10.33,0,0,1,4.15,0c1.85.49,2.92.82,2.92.82A20.12,20.12,0,0,1,36,7a12,12,0,0,0,.15-2.26,13.54,13.54,0,0,0-2.27-.64,12.86,12.86,0,0,0-.39,1.4l-1-1.37-1.32,0A2.75,2.75,0,0,0,29.36,4.09Z"/>
                <path class="e00aaef8-8bcc-4541-bd9b-57d4552edcb0"
                      d="M37,5.26a13.11,13.11,0,0,0-.48,2.47,15.81,15.81,0,0,0,.29,2.9,9.36,9.36,0,0,1,2.92,1.3,9.83,9.83,0,0,1,2.3,2.6,7,7,0,0,1-.21-3.33c.38-1.62.93-3,.76-3.14a13.33,13.33,0,0,0-1.94-1.23C39.75,6.36,38.19,4.88,37,5.26Z"/>
                <path class="ac0f2692-d316-4a9f-b910-3af8ac318945"
                      d="M16.51,13.59S14.51,12,13.72,12a6.26,6.26,0,0,1-2-.42L10.43,9.86l-1.64.73L1.62,8.91l.54,3.87S14.09,14.86,16.51,13.59Z"/>
                <path class="ac0f2692-d316-4a9f-b910-3af8ac318945"
                      d="M19,7s3.35-.14,4.06-.14S25.42,7,25.42,7l1.12,1.9,1.9,1.44s-2.24.4-3.18.64-7.64,3.19-7.64,3,.48-2.39.59-2.74a16.78,16.78,0,0,1,1-1.71l-.44-1.21Z"/>
                <path class="ac0f2692-d316-4a9f-b910-3af8ac318945"
                      d="M29,4.23l-.56,4.68V10s3.51.13,4.47.2,5.22,1.37,6.45,1.73,2.47,2.86,2.47,2.86-.2-1.5-.35-2.18a5.06,5.06,0,0,1,0-1.54l-.76-1.42-.45,1.27-.34-1.51L38.66,7.83l-1.61.52L33,7.35,30.59,6,29,4.09Z"/>
                <polygon class="ef404d29-a8c7-4936-b130-401459f40e5d"
                         points="19.01 7.01 18.21 9.44 18.09 10.89 17.04 13.69 17.96 13.59 18.43 11.51 18.77 9.81 18.47 9.24 19.22 6.98 19.01 7.01"/>
                <polygon class="ef404d29-a8c7-4936-b130-401459f40e5d"
                         points="29.09 9.81 28.62 9.06 28.44 7.93 28.44 6.87 28.85 4.57 29.44 4.09 29.44 5.98 29.56 8.12 29.09 9.81"/>
                <path class="ef404d29-a8c7-4936-b130-401459f40e5d"
                      d="M37,5.35l-.84,1.17S36,8.71,36.05,9s.11,1.72.11,1.72h.65s-.34-2.45-.29-2.89S37,5.35,37,5.35Z"/>
                <polygon class="ef404d29-a8c7-4936-b130-401459f40e5d"
                         points="13.61 9.02 13.01 9.24 13.25 10.35 13.61 9.02"/>
                <polygon class="ef404d29-a8c7-4936-b130-401459f40e5d"
                         points="25.79 4.7 24.61 5.17 25.28 6.29 25.79 4.7"/>
                <polygon class="ef404d29-a8c7-4936-b130-401459f40e5d"
                         points="33.89 4.06 32.95 4.7 33.49 6.29 33.89 4.06"/>
                <polygon class="b6963c17-7d45-43d6-bf72-3d117d4aef82"
                         points="21.19 6.98 24.3 6.29 26.54 6.98 28.09 10.08 26.16 8.91 25.58 7.27 21.19 6.98"/>
                <polygon class="b6963c17-7d45-43d6-bf72-3d117d4aef82"
                         points="25.99 4.72 28.14 4.72 28.46 6.67 28.62 4.02 25.99 4.72"/>
                <polygon class="b6963c17-7d45-43d6-bf72-3d117d4aef82"
                         points="30.74 4.05 31.84 4.7 33.05 6.29 33.44 8.5 33.44 4.92 33.05 5.73 32.06 4.09 30.74 4.05"/>
                <path class="b6963c17-7d45-43d6-bf72-3d117d4aef82"
                      d="M39.08,5.82,41,7.74l1.23.76-.38,2.7.76-3.14S40,6.28,39.08,5.82Z"/>
                <polygon class="b6963c17-7d45-43d6-bf72-3d117d4aef82"
                         points="13.25 10.35 15.95 9.02 17.04 13.69 17.96 10.33 18.21 7.35 13.61 9.02 13.25 10.35"/>
            </g>
        </g>
    </g>
</svg>