<svg xmlns="http://www.w3.org/2000/svg" viewBox="0 0 21.31 17.06"><defs><style>.a5fac074-2079-404f-86ae-acd98858a76d{fill:#280e00;}.bbd592d5-7696-492f-a8aa-81cbb096e914{fill:#ff9d00;}.b0d998ed-9348-4191-8f6c-61a5fa4768b8{fill:#ffd56c;}.b2f1ffdd-c233-451c-b60e-9490196d5878{fill:#e03a00;}.ee4c4f86-d476-4051-a4d3-35d3227a1d3b{fill:#a50000;}</style></defs><title>Asset 4</title><g id="a6692a9c-cb03-4be8-b44f-d0d1f82e1647" data-name="Layer 2"><g id="a503a4d2-d6e0-4f0f-935e-54a0471d1d7d" data-name="—ÎÓÈ_1"><path class="a5fac074-2079-404f-86ae-acd98858a76d" d="M6.41,6.82,3.85,12.21s-1,0-.91.5a1.32,1.32,0,0,1-.27,1l-.1.15.37.16.43-1a2,2,0,0,1-.11,1,1.17,1.17,0,0,1-.52.71l.63.32s1.07-.78,1.12-1.54a5.68,5.68,0,0,0,0-1.08L6.78,6.78Z"/><path class="a5fac074-2079-404f-86ae-acd98858a76d" d="M7.79,8.28,6.57,14.09s-1,.25-.77.69a1.33,1.33,0,0,1,0,1L5.71,16l.4.09L6.28,15a1.93,1.93,0,0,1,.14,1,1.13,1.13,0,0,1-.33.8l.68.18s.86-1,.73-1.74a6.31,6.31,0,0,0-.25-1.06l1.19-6Z"/><path class="a5fac074-2079-404f-86ae-acd98858a76d" d="M9.48,8.49l.78,5.88s-.83.53-.5.88a1.32,1.32,0,0,1,.32,1v.18l.41,0-.2-1.09a2,2,0,0,1,.47.92,1.15,1.15,0,0,1-.05.87l.71,0a2.79,2.79,0,0,0,.11-1.88,5.24,5.24,0,0,0-.6-.92L10.4,8.11Z"/><path class="a5fac074-2079-404f-86ae-acd98858a76d" d="M12,8.49l1.91,5.63s-.72.68-.33,1a1.34,1.34,0,0,1,.51.89l0,.18.39-.11-.4-1a2,2,0,0,1,.64.82,1.15,1.15,0,0,1,.12.86l.68-.17a2.78,2.78,0,0,0-.25-1.86c-.5-.59-.39-.79-.39-.79l-2-5.8Z"/><path class="a5fac074-2079-404f-86ae-acd98858a76d" d="M14.06,7.11l2.56,4.49s-.57.79-.13,1a1.42,1.42,0,0,1,.67.79l.06.17.36-.18-.6-.94a2,2,0,0,1,.79.69,1.14,1.14,0,0,1,.28.82l.64-.29s0-1.29-.61-1.78a5.51,5.51,0,0,0-.9-.65L14.91,6.72Z"/><path class="a5fac074-2079-404f-86ae-acd98858a76d" d="M.46,3.31a10.44,10.44,0,0,0,4-.39C5.78,2.3,6.88.45,10.53.19,13.05,0,19.14,3.9,19.14,3.9a16.53,16.53,0,0,1-8.49,3.33A11.59,11.59,0,0,1,3,5L4.21,4.8A13.52,13.52,0,0,0,11.7,6.31a12.91,12.91,0,0,0,5.62-2.59S13.48,1,10.21,1.32,6.3,2.73,5.13,3.72,0,4.42,0,4.42Z"/><path class="a5fac074-2079-404f-86ae-acd98858a76d" d="M13.47,3.22a2.6,2.6,0,1,1-2.6-2.6A2.59,2.59,0,0,1,13.47,3.22Z"/><path class="bbd592d5-7696-492f-a8aa-81cbb096e914" d="M6.78,6.78l-2.57,5.4s-1,0-.91.49a1.37,1.37,0,0,1-.26,1l-.11.15L3.3,14l.43-1a2,2,0,0,1-.11,1,1.16,1.16,0,0,1-.52.7l.63.32s1.07-.78,1.12-1.54a4.74,4.74,0,0,0,0-1.08L7.19,7.31Z"/><path class="bbd592d5-7696-492f-a8aa-81cbb096e914" d="M8.15,8.24,6.93,14.05s-1,.25-.77.69a1.36,1.36,0,0,1,0,1l-.07.16.4.09.18-1.09a2.09,2.09,0,0,1,.14,1,1.15,1.15,0,0,1-.34.79l.68.19s.86-1,.73-1.75a6.31,6.31,0,0,0-.25-1.06l1.19-6Z"/><path class="bbd592d5-7696-492f-a8aa-81cbb096e914" d="M9.84,8.45l.79,5.88s-.84.53-.51.89a1.29,1.29,0,0,1,.32,1v.17l.41,0-.2-1.08a2,2,0,0,1,.47.92,1.13,1.13,0,0,1,0,.86l.71,0a2.79,2.79,0,0,0,.11-1.88,5.24,5.24,0,0,0-.6-.92L10.4,8.11Z"/><path class="bbd592d5-7696-492f-a8aa-81cbb096e914" d="M12.39,8.45l1.91,5.64s-.72.67-.33,1a1.34,1.34,0,0,1,.51.89l0,.18.39-.11-.4-1a2,2,0,0,1,.64.82,1.15,1.15,0,0,1,.12.86l.68-.17a2.78,2.78,0,0,0-.25-1.86,6.14,6.14,0,0,0-.77-.8l-2-5.8Z"/><path class="bbd592d5-7696-492f-a8aa-81cbb096e914" d="M14.42,7.08,17,11.56s-.57.79-.13,1a1.46,1.46,0,0,1,.67.79l.06.17.36-.18-.6-.94a2,2,0,0,1,.79.69,1.15,1.15,0,0,1,.28.82l.64-.29s0-1.29-.61-1.78a5.51,5.51,0,0,0-.9-.65L14.91,6.72Z"/><path class="bbd592d5-7696-492f-a8aa-81cbb096e914" d="M1,3.25a10.23,10.23,0,0,0,4-.39C6.32,2.24,7.42.39,11.07.13c2.52-.18,8.61,3.71,8.61,3.71a16.48,16.48,0,0,1-8.49,3.33A11.59,11.59,0,0,1,3.52,4.9l1.23-.15a13.46,13.46,0,0,0,7.49,1.5,12.91,12.91,0,0,0,5.62-2.59S14,1,10.75,1.26,6.84,2.67,5.67,3.66s-5.13.7-5.13.7Z"/><path class="b0d998ed-9348-4191-8f6c-61a5fa4768b8" d="M4.24,3.09A4.46,4.46,0,0,0,5.71,3C6.62,2.8,8.76.63,11.41.56s6,2.84,6.72,3.1a4.27,4.27,0,0,0,1.55.18l1.63-.12-.21-.5A15.2,15.2,0,0,1,19.05,3c-.66-.16-3-2.24-6.27-2.87A8.24,8.24,0,0,0,6.09,2.07,6.13,6.13,0,0,1,4.24,3.09Z"/><path class="b2f1ffdd-c233-451c-b60e-9490196d5878" d="M14,3.16a2.6,2.6,0,1,1-2.6-2.6A2.59,2.59,0,0,1,14,3.16Z"/><path class="ee4c4f86-d476-4051-a4d3-35d3227a1d3b" d="M13.11,5a3.58,3.58,0,0,1-2.54-1.33A2.82,2.82,0,0,1,10.44.87S8.51,1.57,9,4.15,13.06,5.66,13.11,5Z"/><path class="a5fac074-2079-404f-86ae-acd98858a76d" d="M11.41,5.87a2.71,2.71,0,1,1,2.71-2.71A2.71,2.71,0,0,1,11.41,5.87Zm0-5.2a2.5,2.5,0,1,0,2.5,2.49A2.5,2.5,0,0,0,11.41.67Z"/></g></g></svg>