<svg xmlns="http://www.w3.org/2000/svg" viewBox="0 0 288.27 261.66">
    <defs>
        <style>
            .cls-1 {
                fill: #664f28;
            }

            .cls-1,
            .cls-2,
            .cls-3,
            .cls-4,
            .cls-5,
            .cls-6 {
                fill-rule: evenodd;
            }

            .cls-2 {
                fill: #c9ba10;
            }

            .cls-3 {
                fill: #b61f1f;
            }

            .cls-4 {
                fill: #609247;
            }

            .cls-5 {
                fill: #d69c63;
            }

            .cls-6 {
                fill: #7484af;
            }

        </style>
    </defs>
    <g>
        <g>
            <path class="cls-1" d="M0,.05H9.85V261.63H0Zm92.81,0h9.85V261.63H92.81Zm185.58,0h9.88V261.63h-9.88Zm-92.78,0h9.85V261.63h-9.85Z" />
            <path class="cls-2" d="M55.39,160.53a19.95,19.95,0,0,1,19.82,18l0-.09a.2.2,0,0,1,0,.07.5.5,0,0,1,0,.16c1,5.89,3.19,9.23,6.53,10.05a1.06,1.06,0,0,1,.6.37,1,1,0,0,1,.24.67v.08a1.07,1.07,0,0,1-.95,1q-5,.56-7.93-2.55a20.16,20.16,0,0,1-4.27,6.16,19.16,19.16,0,0,1-14.06,5.82,19.18,19.18,0,0,1-14.07-5.82,20.87,20.87,0,0,1-3-3.71,8.84,8.84,0,0,1-6.27,4.41h0q-4.17.84-6.31-.87c-1.71-1.05-2.56-3-2.52-5.92h0a15.49,15.49,0,0,1,3.21-9.58h-.89c-2.78,0-4.41-.46-4.91-1.28a2.57,2.57,0,0,1-.11-3.16,6.57,6.57,0,0,1,2.16-2.33,6,6,0,0,1,3.44-1,6.81,6.81,0,0,1,1.13.09l.4.06h0c3.1.75,4.91,1.89,5.44,3.44,1.11,1.75.51,3.78-1.78,6.1a10.64,10.64,0,0,0-3.14,7.7h0a2.26,2.26,0,0,0,.57,1.78,3.77,3.77,0,0,0,2.37.05c2.74-.83,4.2-3.71,4.38-8.67h0v0c0-.39,0-.78,0-1.17a19.9,19.9,0,0,1,19.9-19.9Zm-14.9,20.93a14.93,14.93,0,0,0,14.9,13.9,14.92,14.92,0,0,0,14.93-14.93c0-.48,0-1,0-1.41h0a.6.6,0,0,1,0-.19,15,15,0,0,0-14.88-13.33,15,15,0,0,0-14.94,14.94c0,.28,0,.56,0,.84v.19Z" />
            <path class="cls-3" d="M55.39,169.23a11.23,11.23,0,0,1,11.16,10.08v.08c0,.34,0,.69,0,1a11.16,11.16,0,0,1-11.19,11.19,11.17,11.17,0,0,1-11.17-10.47v-.08c0-.21,0-.43,0-.64a11.2,11.2,0,0,1,11.2-11.2Z" />
            <path class="cls-4" d="M51.19,213.48l.29,0a5.59,5.59,0,0,1,4.21,2.25,7.91,7.91,0,0,1,1.63,3.34l0,.13a8.76,8.76,0,0,1,.19,1.56q.38,3.69.37,10.37a186.17,186.17,0,0,1-1,21.43q-1,8.88-2.49,8.88t-2.51-8.88a186.8,186.8,0,0,1-1-20.58v-.85c0-.73,0-1.45,0-2.16l-.39,0h-.09l-.25,0a5.84,5.84,0,0,1-3.42-2.19,9,9,0,0,1,0-11A5.63,5.63,0,0,1,51.19,213.48Zm-11.25,5.74a9.79,9.79,0,0,1,.19,1.56q.38,3.69.37,10.37a183.69,183.69,0,0,1-1.06,21.43q-1,8.88-2.48,8.88c-1,0-1.81-3-2.51-8.88a186.54,186.54,0,0,1-1-20.58v-.85c0-.73,0-1.45,0-2.16-.24,0-.49-.05-.72-.09l-.12,0a5.8,5.8,0,0,1-3.31-2.16,9,9,0,0,1,0-11,5.64,5.64,0,0,1,4.5-2.27l.29,0a5.62,5.62,0,0,1,4.22,2.25,8,8,0,0,1,1.62,3.34Zm34.8-.13,0,.13a8.76,8.76,0,0,1,.19,1.56q.38,3.69.37,10.37a186.17,186.17,0,0,1-1,21.43q-1,8.88-2.49,8.88t-2.51-8.88a186.1,186.1,0,0,1-1-20.69v-.74c0-.73,0-1.45,0-2.16l-.48-.05a5.77,5.77,0,0,1-3.68-2.23,9,9,0,0,1,0-11,5.65,5.65,0,0,1,4.51-2.27l.29,0a5.61,5.61,0,0,1,4.21,2.25A8,8,0,0,1,74.74,219.09Z" />
            <path class="cls-4" d="M75.5,104l6.87,1.28-7.43,3.09Q70.4,130,54.87,134.41l-3.15,4.89L55.06,144h7.75a1.68,1.68,0,1,1,0,3.36H39.34a1.6,1.6,0,0,1-1.18-.49,1.67,1.67,0,0,1,0-2.38,1.6,1.6,0,0,1,1.18-.49h6.49l-3.24-4.75L45,135.47a48.67,48.67,0,0,1-8.28-1,21.51,21.51,0,0,1-16.41,2A36.66,36.66,0,0,0,36.07,126a46,46,0,0,1,24.79-17.53q2.37-8.36,7.47-8.74C71.74,99.73,74.14,101.15,75.5,104ZM45.75,139.3,49.1,144h2.69l-3.23-4.75,2.6-4c-.95.13-1.93.23-2.93.27Z" />
            <path class="cls-5" d="M68.16,72.6q14,.74,13.14,7.91-1.64,6.42-16.14,5.9-12.54-.5-14.75-6.66a111,111,0,0,1-25.22-4.5L21.34,61.46l5.17-.85,5.72,8.83a114.73,114.73,0,0,0,31.65-.38Q67.93,68.93,68.16,72.6Z" />
            <path class="cls-2" d="M66.61,7.09l8.2,7.35L63.71,26.81a25.08,25.08,0,0,1,6,4.5,23.66,23.66,0,0,1,7.19,16.1H67.05a14.15,14.15,0,0,0-4.28-9.13,14.54,14.54,0,0,0-5.66-3.58l-.62,12.71H46.18L45.56,34.7a14.5,14.5,0,0,0-5.65,3.58,14.16,14.16,0,0,0-4.29,9.13H25.75a23.65,23.65,0,0,1,7.18-16.1,25.08,25.08,0,0,1,6-4.5L27.87,14.44l8.19-7.35,8.64,9.63L43.9,0H58.78L58,16.72Z" />
            <polygon class="cls-2" points="236.94 239.25 249.06 254.06 265.33 242.43 263.48 261.55 210.39 261.55 208.53 242.43 224.81 254.06 236.94 239.25" />
            <path class="cls-2" d="M149.45,129.75h0a7.37,7.37,0,0,0-5.3-3.2h0a7.39,7.39,0,0,0-5.31,3.2h0a16.81,16.81,0,0,0-3.18,10.3,19.35,19.35,0,0,0,.93,6c0,.13.07.26.1.38s.17.45.27.67.07.16.1.23a117.14,117.14,0,0,0,7.1,15,114.54,114.54,0,0,0,7.12-15,1.57,1.57,0,0,0,.09-.23c.1-.22.2-.44.29-.67l.09-.38a19.06,19.06,0,0,0,.93-6A16.81,16.81,0,0,0,149.45,129.75Zm-17-4.92q4.83-6.3,11.68-6.31c4.58,0,8.47,2.11,11.71,6.31a24.24,24.24,0,0,1,4.84,15.22,26.64,26.64,0,0,1-1.35,8.65,1.6,1.6,0,0,1-.05.21c-.17.48-.35,1-.55,1.42a125.16,125.16,0,0,1-6.7,14.39l11.45-1.07v12.69l-14.83-1.42,1.85,19.46H137.77l1.84-19.46-14.8,1.4V163.65l11.42,1.07a126.89,126.89,0,0,1-6.71-14.39c-.19-.47-.37-.94-.54-1.42a1.6,1.6,0,0,0,0-.21,26.64,26.64,0,0,1-1.35-8.65A24.24,24.24,0,0,1,132.43,124.83Z" />
            <polygon class="cls-3" points="163.4 0 163.4 41.2 126.57 41.2 124.91 27.39 138.34 27.39 136.65 13.94 148.15 13.94 146.61 0 163.4 0" />
            <path class="cls-6" d="M116.75,74.64a7.86,7.86,0,0,0,11.13,0h0l0,0a4.27,4.27,0,0,0,.36-.38,7.48,7.48,0,0,0,1.23-1.82l.05-.11a15.25,15.25,0,0,1,3.34-4.8h0a15.91,15.91,0,0,1,22.52,0,15.74,15.74,0,0,1,3.32,4.77l0-.07s0,.08,0,.11l0,.07,0,0,0,0,0,0c.07.17.16.33.25.5l0,0s0,0,0,0a8.73,8.73,0,0,0,.87,1.18c.12.14.25.27.38.4A7.63,7.63,0,0,0,166,77a7.54,7.54,0,0,0,5.55-2.31h0l0,0c.12-.12.24-.25.35-.38v9.68A15.62,15.62,0,0,1,166,85a15.35,15.35,0,0,1-11.27-4.68,16.31,16.31,0,0,1-2.52-3.21l0,0c-.21-.37-.41-.73-.59-1.1h0a.13.13,0,0,0,0-.06c-.06-.11-.11-.23-.17-.36v0a7.38,7.38,0,0,0-.78-1.32,7.85,7.85,0,0,0-12-1l-.13.12a9.4,9.4,0,0,0-.78.91,7.63,7.63,0,0,0-.74,1.3l0,0h0a15.48,15.48,0,0,1-3.16,4.58l-.17.19A15.3,15.3,0,0,1,122.33,85a15.76,15.76,0,0,1-6-1.11V74.24A4.75,4.75,0,0,0,116.75,74.64Zm-.38,27.41V92.38c.12.13.24.27.38.4a7.86,7.86,0,0,0,11.13,0h0l0,0,.36-.38a7.68,7.68,0,0,0,1.23-1.82,1.17,1.17,0,0,1,.05-.11,15.25,15.25,0,0,1,3.34-4.8h0a15.89,15.89,0,0,1,22.52,0,15.7,15.7,0,0,1,3.32,4.76l0-.06s0,.07,0,.11a.16.16,0,0,1,0,.07s0,0,0,0l0,0s0,0,0,0,.16.33.25.49l0,0a0,0,0,0,0,0,0,9.41,9.41,0,0,0,.87,1.18l.38.4A7.63,7.63,0,0,0,166,95.09a7.54,7.54,0,0,0,5.55-2.31h0l0,0,.35-.38v9.68a15.81,15.81,0,0,1-5.94,1.1,15.36,15.36,0,0,1-11.27-4.69,16.26,16.26,0,0,1-2.52-3.2l0,0c-.21-.36-.41-.73-.59-1.1h0a.09.09,0,0,0,0,0c-.06-.11-.11-.23-.17-.36a0,0,0,0,0,0,0,6.74,6.74,0,0,0-.78-1.32,7.85,7.85,0,0,0-12-1,.8.8,0,0,1-.13.13,8.34,8.34,0,0,0-.78.91,7.54,7.54,0,0,0-.74,1.29l0,0h0a15.44,15.44,0,0,1-3.16,4.57,1,1,0,0,1-.17.19,15.27,15.27,0,0,1-11.27,4.69A15.76,15.76,0,0,1,116.37,102.05Z" />
            <path class="cls-6" d="M256.35,169.29a160.86,160.86,0,0,1,0,25.09q-.6,9.5-11,14.43v11h8.74a1.44,1.44,0,0,1,1,.43,1.48,1.48,0,0,1,.45,1v.1a1.54,1.54,0,0,1-1.47,1.47H228.46a1.52,1.52,0,0,1-1.47-1.47v-.1a1.51,1.51,0,0,1,.44-1,1.48,1.48,0,0,1,1-.43h7.89v-8c-2.07.48-4.29.89-6.67,1.21q-10.37,12.74-21.75,7.27,11.2-4.06,13.25-16.29,3.44-16.54,22.28-19.84a90.78,90.78,0,0,1-1.31-14l3.56,3.55a11.42,11.42,0,0,1,8.23,0ZM239,211.16v8.64h3.81v-9.88C241.57,210.37,240.3,210.78,239,211.16Z" />
            <path class="cls-5" d="M229.6,106.25a3,3,0,0,1-2.18-.89,3,3,0,0,1-.9-2.18v0a3.07,3.07,0,0,1,3.08-3.07h14.75a3.07,3.07,0,0,1,3.07,3.07v0a3.06,3.06,0,0,1-3.07,3.07h-3V117q19.65.94,2,37.33H230.61q-17.67-36.39,2-37.33V106.25Z" />
            <polygon class="cls-4" points="218.14 84.42 218.14 1.96 232.51 0.03 229.31 28.43 243.99 26.52 240.63 75.48 255.8 72.61 255.8 84.42 218.14 84.42" />
            <path class="cls-3" d="M139.66,221.42v37.1a3,3,0,0,1-.92,2.22,3,3,0,0,1-2.22.92,3.06,3.06,0,0,1-2.22-.92,3,3,0,0,1-.91-2.22v-37.1a5.26,5.26,0,0,0-1.6-3.83A5.19,5.19,0,0,0,128,216a5.36,5.36,0,0,0-5.4,5.4v9.91a3.14,3.14,0,0,1-6.28,0v-9.91a11.29,11.29,0,0,1,3.4-8.26h0a11.69,11.69,0,0,1,19.94,8.28Z" />
            <path class="cls-3" d="M168.82,221.42v37.1a3,3,0,0,1-.92,2.22,3.13,3.13,0,0,1-4.43,0,3,3,0,0,1-.92-2.22v-37.1a5.41,5.41,0,1,0-10.81,0v9.91a3.14,3.14,0,1,1-6.27,0v-9.91a11.32,11.32,0,0,1,3.39-8.26h0a11.69,11.69,0,0,1,19.93,8.28Z" />
        </g>
    </g>
</svg>
